<svg width="135" height="131" viewBox="0 0 135 131" fill="none" xmlns="http://www.w3.org/2000/svg">
<path d="M118.25 107.171C115.869 109.655 113.616 111.257 111.836 112.522C90.9156 127.398 66.1605 123.062 60.8996 122.002C53.1306 120.439 38.113 117.416 27.256 104.764C10.8298 85.6209 13.3875 55.4628 26.129 35.5545C28.4595 31.9131 40.7705 11.7018 65.7919 8.46066C80.9347 6.49915 98.5864 10.4552 111.369 21.0683C138.201 43.3453 136.291 88.3492 118.25 107.171Z" fill="#E1F2FF"/>
<path d="M125.95 20.7781C125.721 20.1609 124.808 20.2578 124.719 20.9092C123.861 27.2068 121.088 43.65 114.575 53.0763C103.971 68.4241 98.7594 91.6782 108.403 102.008C108.403 102.008 150.836 88.0157 125.95 20.7781Z" fill="#BEDDF4"/>
<path opacity="0.43" d="M125.966 29.592C125.979 29.7923 125.973 29.9585 125.975 30.1374L125.969 30.6651L125.944 31.7192C125.923 32.4217 125.891 33.1238 125.859 33.8258C125.79 35.2296 125.703 36.6321 125.603 38.0341C125.398 40.8375 125.116 43.635 124.792 46.4281C124.472 49.2215 124.073 52.0063 123.614 54.7812C123.153 57.5557 122.653 60.3248 122.06 63.0762C120.887 68.5802 119.41 74.0261 117.551 79.3467C116.594 81.9967 115.566 84.6236 114.386 87.1853C113.189 89.738 111.881 92.2412 110.395 94.6393C110.362 94.6912 110.294 94.7077 110.241 94.6756C110.19 94.6442 110.173 94.5787 110.202 94.5272L110.203 94.5259C111.589 92.0817 112.84 89.5681 113.963 86.9994C115.094 84.4331 116.074 81.8041 116.983 79.1537C117.892 76.5021 118.691 73.8146 119.43 71.111C120.167 68.4067 120.791 65.6734 121.399 62.9373C122.593 57.4584 123.491 51.9189 124.234 46.3601C124.6 43.5798 124.909 40.7917 125.168 37.9987C125.3 36.6024 125.419 35.2048 125.521 33.806L125.656 31.7068L125.713 30.6572L125.736 30.1324C125.74 29.9605 125.748 29.7758 125.746 29.6249L125.746 29.6002C125.745 29.5396 125.794 29.4897 125.855 29.4889C125.914 29.4881 125.963 29.5343 125.966 29.592Z" fill="white"/>
<path d="M98.2506 9.07185C97.8712 8.56767 97.0604 8.90324 97.1581 9.52451C98.1046 15.5319 100.089 31.3609 96.7109 41.7658C91.2117 58.707 92.8333 81.4417 104.521 88.3074C104.521 88.3074 139.582 64.0045 98.2506 9.07185Z" fill="#B3D6F2"/>
<path opacity="0.43" d="M100.695 17.1495C100.762 17.3301 100.802 17.4839 100.853 17.6476L100.992 18.1332L101.26 19.1065C101.435 19.7567 101.598 20.4088 101.762 21.0614C102.086 22.3675 102.392 23.6772 102.687 24.9898C103.271 27.6163 103.783 30.2576 104.255 32.9064C104.731 35.5547 105.131 38.2162 105.475 40.8852C105.816 43.5541 106.12 46.2292 106.334 48.9122C106.773 54.2769 106.918 59.6708 106.677 65.0528C106.528 67.742 106.308 70.4291 105.931 73.0972C105.535 75.762 105.024 78.4112 104.32 81.0117C104.305 81.0694 104.245 81.1036 104.187 81.0879C104.13 81.0731 104.096 81.0162 104.109 80.9601L104.109 80.9585C104.706 78.3423 105.161 75.6989 105.484 73.0395C105.815 70.3804 105.989 67.7045 106.093 65.0285C106.195 62.3513 106.189 59.6708 106.121 56.992C106.053 54.3127 105.873 51.6376 105.677 48.9641C105.264 43.6176 104.562 38.2946 103.715 32.9962C103.285 30.3475 102.802 27.707 102.271 25.076C102.007 23.7601 101.732 22.4462 101.44 21.1356L100.987 19.1741L100.751 18.1959L100.627 17.7086C100.584 17.5498 100.54 17.3779 100.497 17.2407L100.489 17.2176C100.471 17.1611 100.503 17.1013 100.56 17.0836C100.617 17.0671 100.675 17.0964 100.695 17.1495Z" fill="white"/>
<path d="M63.1213 111.095C88.7368 111.095 109.502 90.5167 109.502 65.1324C109.502 39.7481 88.7368 19.17 63.1213 19.17C37.5057 19.17 16.7402 39.7481 16.7402 65.1324C16.7402 90.5167 37.5057 111.095 63.1213 111.095Z" fill="#2586C8"/>
<path d="M99.0248 97.6318C117.137 79.6825 117.138 50.581 99.0248 32.6318C80.912 14.6825 51.5455 14.6825 33.4327 32.6318C15.32 50.581 15.32 79.6825 33.4327 97.6318C51.5455 115.581 80.912 115.581 99.0248 97.6318Z" fill="white"/>
<path d="M66.2268 104.36C88.0886 104.36 105.811 86.7971 105.811 65.1326C105.811 43.4682 88.0886 25.9057 66.2268 25.9057C44.365 25.9057 26.6426 43.4682 26.6426 65.1326C26.6426 86.7971 44.365 104.36 66.2268 104.36Z" fill="#2586C8"/>
<path d="M66.2271 106.324C43.307 106.324 24.6602 87.8457 24.6602 65.1325C24.6602 42.4192 43.307 23.9407 66.2271 23.9407C89.1472 23.9407 107.794 42.4192 107.794 65.1325C107.794 87.8457 89.1472 106.324 66.2271 106.324ZM66.2271 25.9051C44.4003 25.9051 26.6429 43.5022 26.6429 65.1321C26.6429 86.7623 44.4003 104.359 66.2271 104.359C88.0539 104.359 105.811 86.7619 105.811 65.1321C105.811 43.5022 88.0539 25.9051 66.2271 25.9051Z" fill="white"/>
<path d="M66.2281 89.0472C79.556 89.0472 90.3604 78.3403 90.3604 65.1327C90.3604 51.9251 79.556 41.2182 66.2281 41.2182C52.9001 41.2182 42.0957 51.9251 42.0957 65.1327C42.0957 78.3403 52.9001 89.0472 66.2281 89.0472Z" fill="#2586C8"/>
<path d="M66.2283 91.0118C51.8286 91.0118 40.1133 79.4023 40.1133 65.132C40.1133 50.8618 51.8286 39.2527 66.2283 39.2527C80.6281 39.2527 92.3434 50.8618 92.3434 65.132C92.3434 79.4023 80.6281 91.0118 66.2283 91.0118ZM66.2283 43.1823C54.0147 43.1823 44.0783 53.029 44.0783 65.132C44.0783 77.2351 54.0147 87.0822 66.2283 87.0822C78.442 87.0822 88.3784 77.2351 88.3784 65.132C88.3784 53.029 78.442 43.1823 66.2283 43.1823Z" fill="white"/>
<path d="M66.2307 74.3975C71.3945 74.3975 75.5805 70.2492 75.5805 65.1321C75.5805 60.0149 71.3945 55.8666 66.2307 55.8666C61.0669 55.8666 56.8809 60.0149 56.8809 65.1321C56.8809 70.2492 61.0669 74.3975 66.2307 74.3975Z" fill="#1E9AFF"/>
<path d="M66.2325 76.3617C59.984 76.3617 54.9004 71.3239 54.9004 65.1314C54.9004 58.9389 59.984 53.9012 66.2325 53.9012C72.481 53.9012 77.5651 58.9389 77.5651 65.1314C77.5651 71.3239 72.481 76.3617 66.2325 76.3617ZM66.2325 57.8312C62.1702 57.8312 58.8654 61.1061 58.8654 65.1318C58.8654 69.1575 62.1702 72.4325 66.2325 72.4325C70.2949 72.4325 73.5996 69.1575 73.5996 65.1318C73.5996 61.1061 70.2949 57.8312 66.2325 57.8312Z" fill="white"/>
<path d="M130.83 78.948L132.81 82.909L124.412 80.9928C121.66 80.3649 119.338 78.5473 118.084 76.04L130.83 78.948Z" fill="#2586C8"/>
<path d="M131.107 77.758L134.636 75.054L126.238 73.1378C123.486 72.51 120.595 73.1382 118.361 74.8499L131.107 77.758Z" fill="#2586C8"/>
<path d="M131.295 77.5938L130.964 79.0202L76.4531 66.5833L76.7847 65.1569L131.295 77.5938Z" fill="#002C4A"/>
<path d="M79.3148 64.4533C80.1406 64.6417 79.2441 68.5 78.4183 68.3116L65.8777 63.839C65.4143 63.6737 65.5736 62.9889 66.0632 63.0409L79.3148 64.4533Z" fill="#002C4A"/>
<path d="M92.6209 120.111C92.6209 120.111 93.2903 121.067 93.324 122.41C93.3319 122.727 93.0735 122.988 92.7545 122.999L87.6018 123.177C87.3605 123.186 87.2519 122.882 87.4445 122.737C88.3955 122.025 90.2675 120.691 91.6362 120.145L92.6209 120.111Z" fill="#002C4A"/>
<path d="M92.7485 118.481L92.6166 120.444C92.602 120.664 92.4111 120.836 92.1898 120.817C92.0554 120.806 91.8936 120.772 91.7151 120.692C91.5454 120.617 91.4405 120.443 91.4476 120.259L91.5375 117.891L92.7485 118.481Z" fill="url(#paint0_linear_969_8477)"/>
<path d="M121.329 111.547C121.329 111.547 122.403 111.077 123.74 111.299C124.055 111.351 124.265 111.652 124.216 111.965L123.414 117.012C123.377 117.248 123.055 117.296 122.949 117.082C122.423 116.021 121.457 113.947 121.176 112.511L121.329 111.547Z" fill="#002C4A"/>
<path d="M119.738 111.112L121.658 111.613C121.873 111.669 122.008 111.888 121.947 112.1C121.911 112.228 121.846 112.379 121.734 112.538C121.627 112.689 121.434 112.758 121.253 112.716L118.924 112.179L119.738 111.112Z" fill="url(#paint1_linear_969_8477)"/>
<path d="M93.4457 71.3977C93.4457 71.3977 93.273 71.0023 93.3009 70.7682C93.3288 70.5344 93.3354 69.8039 92.8932 69.4955C92.8932 69.4955 92.6536 69.5071 92.649 69.7734C92.3674 69.4737 92.3532 69.2152 92.062 69.3991C91.7712 69.5825 90.6763 70.2409 91.2229 70.675C91.7696 71.1091 92.629 71.9353 92.629 71.9353L93.4457 71.3977Z" fill="url(#paint2_linear_969_8477)"/>
<path d="M102.93 102.978C102.93 102.978 103.905 110.691 106.697 110.985C109.49 111.28 120.185 112.81 120.185 112.81L120.482 111.221C120.482 111.221 114.303 107.511 110.619 107.57C108.777 104.862 109.226 97.3783 109.226 97.3783L102.93 102.978Z" fill="#002C4A"/>
<path d="M114.416 76.05C114.087 84.6492 109.536 85.4086 109.536 85.4086V96.4067H103.118C103.118 96.4067 100.005 88.8963 100.086 86.386C95.4572 84.4464 93.1142 73.3555 92.625 71.9352C92.853 71.7633 92.9757 71.7699 93.4412 71.3977C99.7504 81.3483 101.29 82.8777 101.29 82.8777H104.854C111.704 82.268 113.39 75.8154 113.39 75.8154L114.416 76.05Z" fill="#1E9AFF"/>
<path d="M109.335 96.3837C109.335 96.3837 109.845 101.773 99.1327 105.973C96.5185 110.801 93.0897 119.801 93.0897 119.801H90.832C90.832 119.801 92.3767 106.209 95.1099 103.5C97.8431 100.792 100.825 97.7437 103.116 96.4092C108.419 95.8597 109.335 96.3837 109.335 96.3837Z" fill="#002C4A"/>
<path d="M104.772 78.869L105.953 82.9923C105.953 82.9923 103.934 84.0675 102.441 83.7769L102.031 80.142L104.772 78.869Z" fill="url(#paint3_linear_969_8477)"/>
<path d="M102.324 75.8748C102.281 75.923 100.674 79.8832 100.674 79.8832L102.975 80.7444L105.061 77.2154C105.061 77.215 103.049 75.0672 102.324 75.8748Z" fill="url(#paint4_linear_969_8477)"/>
<path d="M104.105 77.68L103.154 79.6229C103.142 79.6477 103.127 79.6704 103.108 79.6914C102.995 79.8184 102.572 80.2261 102.177 79.7722C101.819 79.3599 101.486 78.9893 101.151 78.8912C101 78.8471 100.841 78.9233 100.782 79.0676C100.636 79.4275 100.322 80.2442 100.159 80.9953C100.126 81.1479 100.217 81.2992 100.368 81.3449C100.821 81.4839 101.784 81.7498 102.609 81.7844C102.721 81.7889 102.827 81.7341 102.884 81.6389C103.165 81.1755 104.026 79.7697 104.326 79.4148C104.609 79.0817 105.2 79.1579 105.445 79.2074C105.526 79.2235 105.608 79.2066 105.676 79.16C105.914 78.9955 106.383 78.5602 105.867 77.9187C105.759 77.7843 105.784 77.5901 105.923 77.4875C106.199 77.2826 106.513 76.9 106.155 76.3418C105.792 75.7745 105.224 75.7947 104.868 75.8805C104.724 75.9151 104.58 75.8401 104.519 75.7065C104.484 75.6302 104.416 75.568 104.285 75.5647C104.109 75.5602 103.979 75.3994 104.002 75.2262C104.046 74.894 103.973 74.4594 103.411 74.2141C102.412 73.7792 101.654 74.6981 101.506 75.4303C101.358 76.1625 102.468 76.5731 103.144 76.5982C103.659 76.6172 103.981 77.161 104.106 77.4207C104.146 77.5027 104.145 77.5979 104.105 77.68Z" fill="#002C4A"/>
<path d="M103.977 80.1187C103.977 80.1187 104.29 78.8539 104.836 78.8515C105.381 78.849 105.856 79.3462 105.238 80.0066C104.47 80.8282 103.977 80.1187 103.977 80.1187Z" fill="url(#paint5_linear_969_8477)"/>
<path d="M114.634 73.7817C114.634 73.7817 113.248 73.1732 113.426 74.1939C113.604 75.2147 113.232 75.9604 114.022 76.0388C114.812 76.1171 114.902 74.487 114.634 73.7817Z" fill="url(#paint6_linear_969_8477)"/>
<g opacity="0.3">
<path d="M32.5466 28.7628C32.3236 28.7739 32.1231 28.6164 32.0881 28.393C32.0107 27.904 31.9542 27.4048 31.9188 26.9089C31.9017 26.6677 32.0852 26.4583 32.3286 26.4414C32.3315 26.4414 32.3344 26.4409 32.3373 26.4409C32.5773 26.429 32.7837 26.6091 32.8007 26.8478C32.834 27.3191 32.8881 27.7936 32.9613 28.2578C32.9992 28.4969 32.834 28.7207 32.5932 28.7582C32.5773 28.7603 32.562 28.7619 32.5466 28.7628ZM32.3789 24.9506C32.3619 24.9515 32.344 24.9515 32.3265 24.9502C32.0831 24.9342 31.8988 24.7251 31.9151 24.484C31.9488 23.988 32.0037 23.4888 32.0794 23.0003C32.1164 22.7612 32.3406 22.5975 32.5832 22.6334C32.8245 22.67 32.99 22.8935 32.953 23.1326C32.8814 23.5972 32.829 24.0713 32.797 24.5425C32.782 24.7664 32.5994 24.9395 32.3789 24.9506ZM33.0624 21.1966C33.0133 21.1991 32.963 21.1933 32.9131 21.1785C32.6793 21.1088 32.5466 20.8648 32.6165 20.6331C32.76 20.1582 32.9264 19.6833 33.1107 19.2224C33.2009 18.9977 33.4576 18.8876 33.6843 18.9766C33.9111 19.0657 34.0222 19.3205 33.9323 19.5451C33.7572 19.983 33.5991 20.434 33.4626 20.885C33.4085 21.0672 33.2438 21.1876 33.0624 21.1966ZM34.5767 17.6875C34.4956 17.6916 34.4124 17.6735 34.3362 17.6306C34.1241 17.5111 34.0496 17.2435 34.1702 17.0333C34.4178 16.6021 34.6869 16.1758 34.9707 15.7672C35.1092 15.5681 35.3842 15.5178 35.5855 15.6547C35.7865 15.7916 35.8376 16.0645 35.6991 16.2636C35.4299 16.6515 35.1741 17.0564 34.939 17.4661C34.8612 17.6018 34.7223 17.6805 34.5767 17.6875ZM36.8419 14.6014C36.7279 14.6072 36.6118 14.5696 36.5211 14.4872C36.341 14.3239 36.3285 14.0469 36.4933 13.8684C36.8302 13.5031 37.188 13.1469 37.5562 12.8101C37.7355 12.6461 38.015 12.6568 38.1806 12.8345C38.3462 13.0121 38.3349 13.2892 38.1556 13.4537C37.8058 13.774 37.4659 14.1124 37.1456 14.4596C37.064 14.5482 36.9542 14.596 36.8419 14.6014ZM39.7398 12.0891C39.5921 12.0965 39.4444 12.0306 39.3537 11.9015C39.2144 11.7028 39.2639 11.4299 39.4644 11.2918C39.8754 11.009 40.3035 10.7398 40.7374 10.4924C40.9491 10.3716 41.2191 10.4438 41.341 10.6536C41.4629 10.863 41.3901 11.131 41.1784 11.2518C40.7661 11.4868 40.3592 11.7424 39.969 12.0112C39.8987 12.0598 39.8193 12.085 39.7398 12.0891ZM55.8615 10.2306C55.8003 10.2335 55.7379 10.2241 55.6772 10.2006C55.2354 10.0278 54.7803 9.87198 54.3239 9.73759C54.0901 9.66874 53.9565 9.42469 54.0264 9.193C54.0959 8.96131 54.3422 8.82898 54.576 8.89824C55.0565 9.04005 55.5361 9.20413 56.0012 9.38594C56.2284 9.47457 56.3399 9.72893 56.2504 9.95402C56.1847 10.1189 56.0291 10.2224 55.8615 10.2306ZM43.1253 10.2764C42.9423 10.2855 42.765 10.1804 42.6926 10.0027C42.6015 9.7784 42.7109 9.52322 42.9373 9.43252C43.4015 9.24701 43.8791 9.07963 44.3575 8.93452C44.5913 8.86485 44.838 8.99388 44.9096 9.22516C44.9811 9.45643 44.8497 9.70131 44.6163 9.77222C44.162 9.90991 43.7081 10.069 43.2676 10.2451C43.221 10.2636 43.1727 10.2739 43.1253 10.2764ZM52.1432 9.24C52.114 9.24165 52.0845 9.24041 52.0541 9.23588C51.5845 9.16538 51.1052 9.11467 50.6301 9.08375C50.3863 9.06809 50.2021 8.85949 50.2179 8.61832C50.2337 8.37715 50.4438 8.19287 50.6875 8.20977C51.1876 8.24193 51.6918 8.29593 52.186 8.36973C52.4273 8.406 52.5937 8.62903 52.5571 8.86814C52.5255 9.07757 52.3487 9.22969 52.1432 9.24ZM46.834 9.25896C46.6115 9.27009 46.4114 9.11343 46.3756 8.88999C46.3373 8.65088 46.5016 8.42662 46.7429 8.38869C47.2367 8.31119 47.7401 8.25388 48.2397 8.21802C48.2426 8.2176 48.246 8.2176 48.2493 8.21719C48.4889 8.20524 48.6953 8.38498 48.7123 8.62326C48.7298 8.86443 48.5467 9.07427 48.3034 9.09159C47.8287 9.12539 47.3503 9.18022 46.8815 9.25401C46.8656 9.25649 46.8498 9.25814 46.834 9.25896Z" fill="#91B3FA"/>
<path d="M58.6318 11.613C58.5449 11.6176 58.4559 11.5966 58.3764 11.5475C58.183 11.4279 57.9837 11.3109 57.7844 11.1987C57.5723 11.0796 57.4978 10.812 57.618 10.6018C57.7383 10.3915 58.0082 10.3173 58.2204 10.4369C58.4301 10.5548 58.6398 10.678 58.8432 10.8038C59.0504 10.9316 59.114 11.2016 58.985 11.4069C58.9056 11.5335 58.7716 11.6056 58.6318 11.613Z" fill="#91B3FA"/>
</g>
<g opacity="0.3">
<path d="M66.3872 22.5368C66.1743 22.5475 65.9787 22.4041 65.933 22.1905C65.8855 21.9695 65.8327 21.7461 65.7757 21.526C65.715 21.2914 65.8577 21.0531 66.094 20.9929C66.3315 20.9327 66.5711 21.0741 66.6319 21.3083C66.6918 21.54 66.7475 21.7754 66.7974 22.0079C66.8482 22.2445 66.6959 22.477 66.4571 22.5273C66.4338 22.5327 66.4105 22.5356 66.3872 22.5368Z" fill="#91B3FA"/>
<path d="M50.4436 43.1386C50.2406 43.149 50.0363 43.156 49.8317 43.1593C49.5875 43.1634 49.3861 42.9709 49.382 42.7289C49.3778 42.4869 49.5733 42.2865 49.8163 42.2832C50.2893 42.275 50.761 42.2482 51.2232 42.202C51.4662 42.1781 51.6829 42.3533 51.707 42.5941C51.7316 42.8348 51.5544 43.0496 51.3114 43.0735C51.0256 43.102 50.7336 43.1238 50.4436 43.1386ZM47.5012 43.0409C47.4766 43.0422 47.4512 43.0414 47.4259 43.0385C46.9362 42.9808 46.4437 42.902 45.9615 42.8039C45.7223 42.7553 45.5684 42.524 45.6175 42.2869C45.6666 42.0499 45.9008 41.8965 46.1392 41.946C46.5968 42.0392 47.0648 42.1138 47.5303 42.169C47.7728 42.1975 47.9459 42.4155 47.9168 42.6555C47.8914 42.8703 47.7125 43.0302 47.5012 43.0409ZM53.604 42.6852C53.396 42.6959 53.203 42.5586 53.1523 42.3504C53.0948 42.115 53.2409 41.8784 53.478 41.8219C53.9319 41.7135 54.3874 41.584 54.8317 41.4373C55.0634 41.361 55.3134 41.4851 55.3908 41.7143C55.4678 41.9439 55.3426 42.1921 55.1113 42.2684C54.6432 42.423 54.1636 42.559 53.6856 42.6736C53.6585 42.6802 53.6315 42.6839 53.604 42.6852ZM43.8099 42.1892C43.7537 42.1921 43.6963 42.1843 43.6402 42.1645C43.1755 42.0016 42.7125 41.8174 42.264 41.6166C42.0414 41.5168 41.9429 41.2575 42.0431 41.0374C42.1438 40.8168 42.405 40.7187 42.628 40.8185C43.054 41.0093 43.4937 41.1846 43.9351 41.3387C44.1652 41.4191 44.2858 41.6698 44.2047 41.8978C44.1427 42.0701 43.9834 42.1806 43.8099 42.1892ZM57.1643 41.4055C56.9937 41.4142 56.826 41.3235 56.7453 41.1619C56.6372 40.945 56.727 40.6824 56.9459 40.5752C57.3644 40.3703 57.78 40.1448 58.181 39.9049C58.3898 39.78 58.6615 39.8464 58.788 40.0537C58.914 40.2607 58.847 40.5299 58.6378 40.6548C58.2155 40.9075 57.7783 41.145 57.3373 41.3606C57.2816 41.3878 57.2225 41.4026 57.1643 41.4055ZM60.3546 39.3826C60.2182 39.3896 60.0805 39.3339 59.9881 39.2206C59.8346 39.0322 59.8646 38.7564 60.0543 38.6047C60.4187 38.3132 60.7744 38.0032 61.1126 37.6833C61.289 37.5159 61.5686 37.5221 61.7375 37.6973C61.906 37.8721 61.8997 38.1495 61.7233 38.3165C61.3676 38.6533 60.9928 38.9794 60.6097 39.2861C60.5339 39.3463 60.4445 39.3781 60.3546 39.3826ZM63.0242 36.719C62.9202 36.7244 62.8145 36.6934 62.7267 36.6242C62.5358 36.4737 62.5042 36.1979 62.656 36.0087C62.9476 35.6455 63.2272 35.2658 63.4868 34.8808C63.6224 34.6796 63.8966 34.6252 64.1 34.7596C64.303 34.8939 64.3579 35.1656 64.2223 35.3672C63.9494 35.7725 63.6553 36.1719 63.3483 36.5541C63.2655 36.6563 63.1465 36.7128 63.0242 36.719ZM65.0439 33.5417C64.9719 33.5455 64.8983 33.5314 64.8288 33.4985C64.6092 33.3929 64.5177 33.1311 64.6242 32.9135C64.8284 32.4959 65.0173 32.065 65.1849 31.633C65.2727 31.4071 65.5286 31.2945 65.7561 31.3811C65.9841 31.4681 66.0977 31.7212 66.0099 31.9471C65.8331 32.4027 65.6347 32.8562 65.4192 33.2956C65.3464 33.4445 65.1995 33.5339 65.0439 33.5417ZM66.3107 30.0013C66.2703 30.0034 66.2287 29.9996 66.1875 29.9902C65.95 29.9353 65.8023 29.6995 65.8576 29.4641C65.9637 29.0135 66.0519 28.5522 66.1197 28.093C66.1551 27.8534 66.3801 27.6881 66.621 27.7228C66.8627 27.7578 67.03 27.98 66.9946 28.2195C66.9235 28.7027 66.8307 29.1883 66.7184 29.6628C66.6726 29.8574 66.5025 29.9914 66.3107 30.0013ZM66.7616 26.2737C66.7525 26.2741 66.7433 26.2741 66.7342 26.2741C66.49 26.2716 66.294 26.0737 66.2965 25.8317C66.2999 25.4904 66.2928 25.1449 66.2753 24.8044C66.2691 24.6811 66.2612 24.5583 66.252 24.4358C66.2341 24.1947 66.4172 23.9848 66.6609 23.9671C66.9072 23.9444 67.1161 24.1308 67.134 24.3719C67.1435 24.501 67.1514 24.63 67.1581 24.7595C67.1764 25.1173 67.1839 25.4809 67.1801 25.8404C67.1785 26.0737 66.9929 26.2621 66.7616 26.2737Z" fill="#91B3FA"/>
<path d="M40.392 40.5468C40.3042 40.5513 40.2144 40.5299 40.1345 40.48C39.9319 40.3539 39.7285 40.2207 39.5292 40.0851C39.3283 39.9478 39.2775 39.6753 39.4156 39.4758C39.5542 39.2766 39.8292 39.2259 40.0305 39.3632C40.2198 39.4923 40.4132 39.6184 40.6054 39.7384C40.8118 39.867 40.8742 40.1374 40.744 40.3423C40.6641 40.4685 40.531 40.5398 40.392 40.5468Z" fill="#91B3FA"/>
</g>
<path d="M40.7267 35.4428C40.7858 35.5075 40.8798 35.5281 40.9609 35.4939L43.2736 34.516C44.2391 35.1781 45.3182 35.6926 46.4793 36.0236L47.1786 38.4151C47.2032 38.4992 47.2789 38.5582 47.3667 38.5627L50.3786 38.7124C50.4668 38.7169 50.5479 38.6654 50.5808 38.5842L51.5176 36.2739C52.7066 36.0595 53.8319 35.6547 54.8594 35.0911L57.0618 36.2928C57.1392 36.3349 57.2349 36.3238 57.3002 36.2652L59.5367 34.2604C59.602 34.2019 59.6228 34.1087 59.5882 34.0283L58.6015 31.7366C59.2696 30.7798 59.7888 29.7104 60.1228 28.5598L62.5361 27.8668C62.6205 27.8424 62.6804 27.7678 62.685 27.6804L62.836 24.6957C62.8406 24.6083 62.7886 24.5279 62.7067 24.4953L60.3753 23.5669C60.159 22.3887 59.7505 21.2736 59.1818 20.2553L60.3949 18.0728C60.4373 17.9965 60.4261 17.9017 60.367 17.8366L58.344 15.6203C58.2849 15.5556 58.1909 15.535 58.1097 15.5692L55.7971 16.547C54.8316 15.885 53.7524 15.3705 52.5914 15.0394L51.892 12.6479C51.8675 12.5642 51.7922 12.5049 51.704 12.5003L48.6921 12.3507C48.6039 12.3462 48.5228 12.3977 48.4899 12.4789L47.5531 14.7892C46.3641 15.0036 45.2388 15.4084 44.2112 15.9719L42.0089 14.7702C41.9315 14.7282 41.8358 14.7393 41.7705 14.7978L39.534 16.8026C39.4687 16.8612 39.4479 16.9544 39.4824 17.0347L40.4692 19.3265C39.8011 20.2833 39.2819 21.3527 38.9479 22.5033L36.5346 23.1963C36.4501 23.2206 36.3902 23.2953 36.3857 23.3827L36.2347 26.3674C36.2301 26.4548 36.2821 26.5352 36.364 26.5677L38.6954 27.4961C38.9117 28.6744 39.3202 29.7895 39.8889 30.8078L38.6762 32.9903C38.6338 33.0669 38.645 33.1614 38.7041 33.2265L40.7267 35.4428Z" fill="#B3D6F2"/>
<path d="M49.6861 28.5315C48.2101 28.6061 46.8593 27.5977 46.561 26.1198C46.2336 24.4955 47.3007 22.91 48.9398 22.5851C49.7339 22.4276 50.5422 22.5863 51.2158 23.0316C51.8893 23.4768 52.3477 24.1554 52.5066 24.942C52.834 26.5663 51.767 28.1518 50.1279 28.4767C49.9802 28.5059 49.8325 28.5241 49.6861 28.5315ZM49.4202 23.2303C49.3063 23.2361 49.1923 23.2501 49.0783 23.2728C47.8215 23.5218 47.0036 24.7375 47.2545 25.9825C47.5058 27.2279 48.7322 28.0393 49.9894 27.7898C51.2461 27.5408 52.064 26.3251 51.8131 25.0801C51.6913 24.4765 51.3401 23.9567 50.8235 23.6149C50.4037 23.3375 49.9153 23.2051 49.4202 23.2303Z" fill="white"/>
<path d="M49.9715 32.8629C49.7182 32.8756 49.4623 32.8761 49.2057 32.8633C49.125 32.8592 49.0438 32.8538 48.9631 32.8476C48.565 32.815 48.1702 32.7511 47.785 32.6572C47.7796 32.6559 47.7746 32.6547 47.7692 32.6534C47.7542 32.6497 47.7392 32.646 47.7247 32.6423C47.6955 32.6349 47.6668 32.6275 47.6381 32.6196C47.5624 32.5994 47.5112 32.5335 47.5075 32.4597C47.5067 32.4415 47.5083 32.4234 47.5133 32.4053C47.5387 32.3117 47.6356 32.2568 47.7301 32.2816C48.2151 32.4106 48.7177 32.4889 49.2235 32.5137C51.7363 32.639 54.0135 31.4468 55.3726 29.5504C56.1285 28.4958 56.6002 27.2232 56.6701 25.8384C56.6826 25.5956 56.6822 25.354 56.6697 25.1141C56.5865 23.5018 55.9517 21.9793 54.8443 20.766C53.5721 19.3722 51.8282 18.5527 49.9341 18.4587C46.0223 18.2649 42.6834 21.2595 42.4875 25.1339C42.4754 25.373 42.4754 25.6113 42.4879 25.8488C42.5412 26.8773 42.8207 27.8828 43.31 28.7923C43.3224 28.8158 43.3295 28.8409 43.3303 28.8656C43.3337 28.9312 43.2996 28.9963 43.2372 29.0293C43.1506 29.0746 43.0437 29.0429 42.9979 28.9572C42.4842 28.0024 42.1905 26.9466 42.1347 25.8669C42.1218 25.6179 42.1218 25.3672 42.1343 25.1166C42.3398 21.0484 45.848 17.905 49.9516 18.1087C51.9401 18.2072 53.771 19.0676 55.1064 20.5307C56.2691 21.8045 56.9356 23.4024 57.0229 25.0951C57.0358 25.3466 57.0358 25.6006 57.0233 25.8553C56.9235 27.8259 56.0557 29.6403 54.5793 30.964C53.2934 32.1163 51.6801 32.7763 49.9715 32.8629Z" fill="white"/>
<g opacity="0.3">
<path d="M18.0766 41.0511C17.9585 41.0569 17.8461 40.9864 17.8054 40.8701C17.7288 40.6533 17.6577 40.4315 17.5944 40.2101C17.5533 40.0662 17.6373 39.917 17.7825 39.8762C17.9277 39.8345 18.0783 39.919 18.1195 40.0625C18.1798 40.2732 18.2476 40.4846 18.3204 40.6916C18.3703 40.8326 18.295 40.9868 18.1527 41.0362C18.1278 41.0453 18.102 41.0498 18.0766 41.0511Z" fill="#91B3FA"/>
<path d="M17.5696 39.0327C17.4315 39.0397 17.3075 38.942 17.2863 38.8034C17.2255 38.4126 17.1843 38.0144 17.1644 37.6194C17.1602 37.5362 17.1569 37.4529 17.1544 37.3692C17.1502 37.2196 17.2767 37.1004 17.419 37.0905C17.5696 37.086 17.6956 37.2035 17.7002 37.3527C17.7027 37.4327 17.7056 37.5127 17.7098 37.5918C17.7293 37.9682 17.7684 38.3483 17.8258 38.721C17.8487 38.8686 17.7464 39.0067 17.5974 39.0298C17.5879 39.031 17.5787 39.0322 17.5696 39.0327ZM17.4851 36.2248C17.4722 36.2256 17.4589 36.2252 17.446 36.224C17.2958 36.2099 17.1852 36.0784 17.1993 35.9296C17.2438 35.4522 17.3183 34.9736 17.4211 34.5065C17.4531 34.3606 17.5995 34.2682 17.746 34.3C17.8932 34.3321 17.9864 34.476 17.9544 34.6219C17.8562 35.0672 17.7851 35.524 17.7426 35.9795C17.7302 36.1151 17.6187 36.2182 17.4851 36.2248ZM18.0904 33.4808C18.0559 33.4825 18.0205 33.4775 17.9856 33.4656C17.8433 33.4157 17.7688 33.2611 17.8192 33.1201C17.9802 32.6687 18.1711 32.2226 18.3875 31.7939C18.4548 31.6599 18.6183 31.6059 18.7535 31.6731C18.8883 31.7399 18.9428 31.9023 18.8754 32.0359C18.6691 32.4448 18.4869 32.8699 18.3334 33.3002C18.2963 33.407 18.1978 33.4755 18.0904 33.4808ZM19.358 30.9681C19.3014 30.971 19.244 30.9566 19.1933 30.9232C19.0676 30.8403 19.0335 30.6721 19.1171 30.548C19.3855 30.149 19.6808 29.7627 19.9953 29.4003C20.0939 29.2873 20.2662 29.2746 20.3801 29.3719C20.4945 29.4692 20.5074 29.6398 20.4088 29.7536C20.1089 30.0991 19.8268 30.4672 19.5714 30.8477C19.5219 30.9219 19.4416 30.964 19.358 30.9681ZM21.2063 28.8384C21.1277 28.8425 21.0474 28.8124 20.9904 28.7502C20.8889 28.6397 20.8972 28.4686 21.0087 28.368C21.3665 28.046 21.7476 27.7426 22.1415 27.4668C22.2647 27.3803 22.4348 27.4095 22.5222 27.5316C22.6091 27.6536 22.58 27.8226 22.4569 27.9088C22.0808 28.1722 21.7176 28.4616 21.3761 28.7687C21.3274 28.812 21.2671 28.8355 21.2063 28.8384ZM23.5202 27.2178C23.4183 27.2232 23.3172 27.1708 23.2656 27.0752C23.1945 26.9437 23.2444 26.7796 23.3771 26.7091C23.8031 26.4828 24.247 26.2808 24.6971 26.1089C24.8385 26.0553 24.9958 26.1249 25.0503 26.2639C25.1044 26.4032 25.0345 26.5599 24.8939 26.6135C24.4645 26.7775 24.0415 26.9701 23.6354 27.1857C23.5984 27.2059 23.5589 27.2162 23.5202 27.2178ZM26.1627 26.2078C26.035 26.2144 25.9164 26.1307 25.8844 26.0029C25.8478 25.8578 25.9372 25.711 26.0832 25.6748C26.5504 25.5593 27.0313 25.4715 27.5122 25.4138C27.6624 25.3981 27.798 25.5016 27.8159 25.65C27.8342 25.7984 27.7273 25.9332 27.578 25.9514C27.1191 26.0062 26.6607 26.0899 26.2151 26.2C26.1972 26.2045 26.1797 26.2066 26.1627 26.2078ZM30.3935 25.9596C30.3777 25.9604 30.3615 25.96 30.3453 25.958C29.9505 25.9089 29.5457 25.8805 29.1426 25.873C29.0814 25.8718 29.0215 25.871 28.9616 25.871C28.8106 25.8706 28.6887 25.7498 28.6887 25.6001C28.6887 25.4505 28.8118 25.3252 28.962 25.3297C29.0257 25.3301 29.0893 25.3305 29.1534 25.3318C29.5744 25.3392 29.9987 25.3693 30.4127 25.4208C30.5624 25.4394 30.6685 25.5746 30.6494 25.723C30.6336 25.8553 30.5233 25.953 30.3935 25.9596Z" fill="#91B3FA"/>
</g>
<g opacity="0.3">
<path d="M29.6955 48.6735C29.5466 48.6809 29.4189 48.5683 29.4093 48.4203C29.3997 48.2715 29.5137 48.1425 29.6643 48.133C30.1174 48.1041 30.5725 48.0481 31.0168 47.9656C31.1645 47.9396 31.3076 48.0349 31.3354 48.1816C31.3633 48.3288 31.2655 48.4698 31.1174 48.4974C30.6511 48.5836 30.1743 48.643 29.6993 48.673C29.6984 48.673 29.6968 48.673 29.6955 48.6735ZM28.299 48.6784C28.289 48.6788 28.2794 48.6788 28.2694 48.6784C27.7948 48.652 27.3172 48.5968 26.8496 48.5143C26.7011 48.4879 26.6021 48.3478 26.6287 48.2006C26.6549 48.0534 26.7976 47.9557 26.9453 47.9813C27.3917 48.06 27.8472 48.1128 28.3002 48.1379C28.4508 48.1462 28.5661 48.274 28.5573 48.4232C28.5494 48.563 28.4367 48.6714 28.299 48.6784ZM32.4354 48.1647C32.3143 48.1709 32.1999 48.0963 32.1612 47.9763C32.1155 47.8341 32.1949 47.682 32.3384 47.6366C32.7711 47.5002 33.1992 47.3365 33.6106 47.1498C33.7483 47.0879 33.9097 47.1473 33.9725 47.2833C34.0353 47.419 33.975 47.5797 33.8377 47.642C33.4063 47.8374 32.9579 48.0093 32.504 48.1524C32.4815 48.1594 32.4582 48.1635 32.4354 48.1647ZM25.5537 48.1924C25.5225 48.194 25.4909 48.1903 25.4593 48.1808C25.0046 48.0423 24.5545 47.8741 24.1206 47.6816C23.9829 47.6206 23.9213 47.4606 23.9829 47.3241C24.0444 47.1881 24.2058 47.1271 24.3435 47.1881C24.7571 47.3716 25.1864 47.5319 25.6199 47.6643C25.7638 47.7084 25.8449 47.8597 25.8004 48.0023C25.7659 48.1132 25.6648 48.1866 25.5537 48.1924ZM34.9697 47.0145C34.8732 47.0195 34.7771 46.9733 34.723 46.8859C34.644 46.7585 34.6843 46.592 34.8125 46.5137C35.1985 46.2787 35.5742 46.0181 35.9286 45.7382C36.0468 45.645 36.2186 45.6644 36.3122 45.7815C36.4062 45.8986 36.3866 46.0688 36.2685 46.1616C35.8966 46.4547 35.503 46.7284 35.0983 46.9746C35.0579 46.9997 35.0138 47.0125 34.9697 47.0145ZM37.1517 45.2959C37.0776 45.2996 37.0027 45.2736 36.9462 45.2183C36.8388 45.1136 36.8376 44.9421 36.9433 44.8358C37.2619 44.515 37.5639 44.1729 37.8406 43.8179C37.9329 43.6996 38.1043 43.6777 38.2237 43.7693C38.3431 43.8608 38.3652 44.0302 38.2728 44.1485C37.9829 44.5204 37.6663 44.8795 37.3322 45.2155C37.2823 45.2658 37.2174 45.2926 37.1517 45.2959ZM38.8552 43.1084C38.8032 43.1109 38.75 43.0994 38.7022 43.0705C38.5724 42.9942 38.5299 42.8281 38.6069 42.6999C38.839 42.3132 39.0491 41.9092 39.2313 41.4986C39.2921 41.3621 39.4531 41.2999 39.5912 41.36C39.7293 41.4202 39.7917 41.5798 39.7309 41.7166C39.5396 42.147 39.3195 42.5708 39.0761 42.9765C39.0279 43.0573 38.9434 43.1039 38.8552 43.1084Z" fill="#91B3FA"/>
<path d="M22.9981 47.0566C22.9457 47.0591 22.8916 47.0468 22.8434 47.0179C22.6433 46.8979 22.4461 46.7718 22.2568 46.6427C22.1328 46.5578 22.1012 46.3896 22.1869 46.2664C22.2726 46.1439 22.4423 46.1126 22.5667 46.1971C22.7473 46.3204 22.9353 46.4407 23.1263 46.5549C23.2552 46.6324 23.2964 46.7986 23.2186 46.9264C23.1691 47.0063 23.0855 47.0521 22.9981 47.0566Z" fill="#91B3FA"/>
</g>
<path d="M23.0449 43.5555C23.0844 43.5987 23.1472 43.6123 23.2017 43.5897L24.7493 42.9354C25.3954 43.3786 26.1176 43.7228 26.8943 43.9442L27.3623 45.5446C27.3785 45.6007 27.4292 45.6402 27.4879 45.6431L29.5035 45.7433C29.5625 45.7462 29.6166 45.712 29.6387 45.6575L30.2656 44.1116C31.061 43.9681 31.8144 43.6973 32.5017 43.3201L33.9756 44.1244C34.0272 44.1524 34.0912 44.145 34.1349 44.1058L35.6313 42.7643C35.675 42.7252 35.6887 42.6629 35.6658 42.6089L35.0056 41.0753C35.4528 40.4351 35.8002 39.7194 36.0236 38.9493L37.6386 38.4855C37.6951 38.4695 37.7351 38.4192 37.738 38.361L37.8391 36.3637C37.842 36.3051 37.8075 36.2515 37.7525 36.2297L36.1925 35.6084C36.0477 34.8202 35.7744 34.0736 35.3938 33.3925L36.2054 31.9319C36.2337 31.8808 36.2262 31.8173 36.1867 31.774L34.833 30.2911C34.7935 30.2478 34.7306 30.2342 34.6761 30.2569L33.1286 30.9112C32.4825 30.468 31.7603 30.1238 30.9836 29.9024L30.5156 28.302C30.4994 28.2459 30.4487 28.2064 30.39 28.2035L28.3744 28.1033C28.3153 28.1004 28.2613 28.1346 28.2392 28.189L27.6123 29.735C26.8169 29.8785 26.0635 30.1493 25.3762 30.5265L23.9027 29.7226C23.8511 29.6946 23.7871 29.702 23.7434 29.7412L22.247 31.0827C22.2033 31.1218 22.1896 31.1841 22.2125 31.2381L22.8727 32.7717C22.4255 33.4119 22.0781 34.1276 21.8547 34.8977L20.2398 35.3615C20.1832 35.3775 20.1432 35.4278 20.1403 35.4864L20.0392 37.4838C20.0363 37.5423 20.0709 37.5959 20.1258 37.6177L21.6858 38.239C21.8306 39.0272 22.1039 39.7734 22.4845 40.4549L21.6729 41.9155C21.6446 41.9666 21.6521 42.0301 21.6916 42.0734L23.0449 43.5555Z" fill="#B3D6F2"/>
<path d="M29.0367 38.9679C28.597 38.9901 28.1631 38.8726 27.7904 38.6261C27.3315 38.3227 27.0195 37.8606 26.9113 37.3246C26.6883 36.2185 27.4147 35.1384 28.5313 34.917C29.6495 34.6977 30.7378 35.4163 30.9608 36.5228C31.0689 37.0587 30.9599 37.6045 30.6538 38.0593C30.3476 38.514 29.8812 38.8236 29.3404 38.9304C29.2397 38.9506 29.1378 38.9629 29.0367 38.9679ZM28.8595 35.4204C28.7863 35.4241 28.7122 35.4332 28.6382 35.4476C27.817 35.6105 27.2824 36.4049 27.4463 37.2187C27.5258 37.6128 27.7554 37.9529 28.0928 38.1759C28.4306 38.399 28.8354 38.4781 29.2335 38.3998C29.6312 38.321 29.9744 38.0935 30.1995 37.7591C30.4245 37.4244 30.5048 37.0233 30.4254 36.6287C30.2764 35.8883 29.5992 35.3829 28.8595 35.4204Z" fill="white"/>
<path d="M29.2329 41.9816C29.0602 41.9903 28.8859 41.9903 28.71 41.982C28.3605 41.9647 28.0119 41.9124 27.6741 41.8258C27.6591 41.8217 27.6437 41.818 27.6287 41.8138C27.5114 41.7829 27.4328 41.6807 27.427 41.5665C27.4257 41.5389 27.4286 41.5104 27.4361 41.4824C27.4752 41.3381 27.625 41.2532 27.7706 41.2915C28.0855 41.3752 28.4108 41.4259 28.7374 41.442C28.7553 41.4428 28.7732 41.4436 28.7911 41.4444C29.5649 41.4754 30.317 41.3142 30.9934 40.984C31.3608 40.8046 31.7056 40.575 32.0197 40.2988C32.0222 40.2967 32.0247 40.2943 32.0272 40.2922C32.0351 40.2852 32.0426 40.2786 32.0505 40.2716C32.9608 39.4553 33.4962 38.3364 33.5577 37.1215C33.5656 36.9645 33.5656 36.8078 33.5577 36.6528C33.5041 35.609 33.093 34.6237 32.3758 33.8379C31.5521 32.9355 30.4231 32.4053 29.1971 32.3447C27.9715 32.2845 26.7942 32.7001 25.8836 33.5159C24.9733 34.3322 24.4379 35.4511 24.3764 36.666C24.3685 36.8206 24.3685 36.9752 24.3764 37.1285C24.4109 37.7943 24.5919 38.4453 24.9085 39.034C24.928 39.0703 24.9384 39.109 24.9401 39.1474C24.9455 39.2488 24.8922 39.3489 24.7961 39.3997C24.663 39.4697 24.4978 39.4203 24.4267 39.2884C24.0723 38.6296 23.8697 37.9011 23.831 37.1566C23.8222 36.9847 23.8218 36.8119 23.8306 36.6388C23.8992 35.2792 24.4983 34.0276 25.5171 33.1144C26.5359 32.2013 27.8513 31.735 29.2241 31.8038C30.5961 31.8719 31.8592 32.4651 32.7806 33.4747C33.5831 34.3536 34.0428 35.456 34.1031 36.6239C34.1119 36.7971 34.1123 36.9723 34.1035 37.1483C33.9704 39.7789 31.8338 41.8501 29.2329 41.9816Z" fill="white"/>
<defs>
<linearGradient id="paint0_linear_969_8477" x1="92.8517" y1="119.224" x2="91.3258" y2="119.436" gradientUnits="userSpaceOnUse">
<stop stop-color="#FEBBBA"/>
<stop offset="1" stop-color="#FF928E"/>
</linearGradient>
<linearGradient id="paint1_linear_969_8477" x1="120.494" y1="111.153" x2="120.412" y2="112.678" gradientUnits="userSpaceOnUse">
<stop stop-color="#FEBBBA"/>
<stop offset="1" stop-color="#FF928E"/>
</linearGradient>
<linearGradient id="paint2_linear_969_8477" x1="91.1263" y1="70.1823" x2="93.5789" y2="70.9969" gradientUnits="userSpaceOnUse">
<stop stop-color="#FEBBBA"/>
<stop offset="1" stop-color="#FF928E"/>
</linearGradient>
<linearGradient id="paint3_linear_969_8477" x1="99.952" y1="72.4166" x2="108.625" y2="93.9405" gradientUnits="userSpaceOnUse">
<stop stop-color="#FEBBBA"/>
<stop offset="1" stop-color="#FF928E"/>
</linearGradient>
<linearGradient id="paint4_linear_969_8477" x1="103.03" y1="76.5344" x2="102.389" y2="84.6296" gradientUnits="userSpaceOnUse">
<stop stop-color="#FEBBBA"/>
<stop offset="1" stop-color="#FF928E"/>
</linearGradient>
<linearGradient id="paint5_linear_969_8477" x1="105.001" y1="85.1341" x2="104.747" y2="79.5129" gradientUnits="userSpaceOnUse">
<stop stop-color="#FEBBBA"/>
<stop offset="1" stop-color="#FF928E"/>
</linearGradient>
<linearGradient id="paint6_linear_969_8477" x1="113.264" y1="74.6715" x2="114.771" y2="74.9818" gradientUnits="userSpaceOnUse">
<stop stop-color="#FEBBBA"/>
<stop offset="1" stop-color="#FF928E"/>
</linearGradient>
</defs>
</svg>
