<svg width="48" height="48" viewBox="0 0 48 48" fill="none" xmlns="http://www.w3.org/2000/svg">
<rect width="48" height="48" rx="8" fill="#EBF7FF"/>
<g clip-path="url(#clip0_349_1381)">
<path d="M31.0326 31.651C31.1029 31.7214 31.1424 31.8167 31.1424 31.9162C31.1424 32.0156 31.1029 32.111 31.0326 32.1813C29.4982 33.7157 27.5594 34.7146 25.426 35.0699C24.8574 35.1647 24.282 35.2125 23.7056 35.2127C22.5032 35.2127 21.314 35.0027 20.1814 34.59L20.4944 35.0339C20.5229 35.0741 20.5433 35.1196 20.5542 35.1677C20.5651 35.2158 20.5665 35.2656 20.5581 35.3142C20.5498 35.3628 20.5319 35.4093 20.5056 35.4511C20.4792 35.4928 20.4449 35.5289 20.4046 35.5573C20.3643 35.5857 20.3187 35.6059 20.2706 35.6167C20.2225 35.6275 20.1727 35.6287 20.1241 35.6202C20.0754 35.6117 20.029 35.5938 19.9874 35.5673C19.9457 35.5408 19.9097 35.5064 19.8814 35.466L18.791 33.9196C18.7556 33.8694 18.733 33.8112 18.7254 33.7502C18.7177 33.6892 18.7252 33.6273 18.7471 33.5698C18.769 33.5124 18.8047 33.4612 18.8511 33.4208C18.8975 33.3804 18.953 33.3521 19.013 33.3383L20.6808 32.9522C20.7777 32.9298 20.8795 32.9468 20.9639 32.9994C21.0483 33.0521 21.1083 33.1361 21.1307 33.233C21.1531 33.3299 21.1362 33.4317 21.0835 33.5161C21.0309 33.6005 20.9468 33.6605 20.8499 33.6829L20.2618 33.819C23.7732 35.1728 27.8124 34.3409 30.5022 31.651C30.5726 31.5807 30.6679 31.5412 30.7674 31.5412C30.8669 31.5412 30.9623 31.5807 31.0326 31.651ZM26.2011 15.5993C29.8755 16.5838 32.6156 19.6658 33.199 23.3837L32.787 22.9424C32.7191 22.8699 32.6252 22.8273 32.5259 22.824C32.4266 22.8207 32.3301 22.8569 32.2574 22.9247C32.1848 22.9925 32.1421 23.0863 32.1386 23.1856C32.1351 23.2848 32.1711 23.3814 32.2387 23.4542L33.407 24.7056C33.4489 24.7505 33.5013 24.7845 33.5594 24.8044C33.6176 24.8243 33.6798 24.8297 33.7405 24.82C33.8012 24.8102 33.8586 24.7857 33.9076 24.7486C33.9566 24.7115 33.9957 24.6628 34.0215 24.607L34.8155 22.8895C34.8572 22.7993 34.8614 22.6961 34.8271 22.6028C34.7928 22.5094 34.7228 22.4336 34.6325 22.3918C34.5878 22.3711 34.5395 22.3595 34.4903 22.3575C34.441 22.3555 34.3919 22.3632 34.3457 22.3802C34.2995 22.3972 34.2571 22.4231 34.2209 22.4565C34.1847 22.4899 34.1554 22.5301 34.1347 22.5748L33.9071 23.0672C33.5986 21.3152 32.8453 19.6775 31.7001 18.286C30.3257 16.616 28.4913 15.4364 26.3952 14.8748C26.2991 14.8491 26.1968 14.8626 26.1107 14.9123C26.0246 14.962 25.9617 15.0439 25.9359 15.14C25.9102 15.236 25.9237 15.3384 25.9735 15.4245C26.0232 15.5106 26.1051 15.5735 26.2011 15.5993ZM14.0879 27.8221C14.1455 27.8222 14.2023 27.809 14.2539 27.7835C14.3055 27.7581 14.3506 27.7211 14.3856 27.6755C14.4207 27.6298 14.4447 27.5767 14.456 27.5203C14.4672 27.4639 14.4653 27.4056 14.4504 27.35C13.4658 23.6756 14.7649 19.7617 17.693 17.3974L17.5168 17.9749C17.4892 18.0696 17.5 18.1714 17.5469 18.2582C17.5938 18.345 17.673 18.4098 17.7674 18.4386C17.8617 18.4674 17.9636 18.4578 18.051 18.412C18.1384 18.3662 18.2042 18.2878 18.2341 18.1938L18.7338 16.5564C18.7517 16.4976 18.7549 16.4353 18.7431 16.3749C18.7313 16.3146 18.7049 16.2581 18.6661 16.2104C18.6273 16.1627 18.5774 16.1253 18.5207 16.1014C18.4641 16.0775 18.4024 16.0679 18.3412 16.0735L16.4568 16.2446C16.4078 16.249 16.3601 16.2631 16.3165 16.286C16.2729 16.3089 16.2342 16.3401 16.2027 16.3779C16.1712 16.4158 16.1474 16.4594 16.1327 16.5064C16.1181 16.5534 16.1128 16.6029 16.1173 16.6519C16.136 16.8582 16.3183 17.01 16.5246 16.9915L17.0648 16.9425C15.7017 18.0856 14.6601 19.5569 14.0277 21.2444C13.2686 23.2697 13.1642 25.4481 13.7259 27.5441C13.7473 27.6238 13.7943 27.6942 13.8598 27.7445C13.9252 27.7948 14.0054 27.822 14.0879 27.8221ZM20.0129 14.6988C20.0129 13.4174 21.0553 12.375 22.3367 12.375C23.618 12.375 24.6605 13.4175 24.6605 14.6988C24.6605 15.9801 23.618 17.0226 22.3367 17.0226C21.0553 17.0226 20.0129 15.9801 20.0129 14.6988ZM20.7629 14.6988C20.7629 15.5666 21.4689 16.2726 22.3367 16.2726C23.2044 16.2726 23.9105 15.5666 23.9105 14.6988C23.9105 13.831 23.2045 13.125 22.3367 13.125C21.4689 13.125 20.7629 13.831 20.7629 14.6988ZM20.866 24.8667C20.866 23.2942 22.1454 22.0148 23.7179 22.0148C25.2905 22.0148 26.5699 23.2942 26.5699 24.8667C26.5699 26.4393 25.2905 27.7186 23.7179 27.7186C22.1454 27.7186 20.866 26.4393 20.866 24.8667ZM21.616 24.8667C21.616 26.0258 22.5589 26.9686 23.7179 26.9686C24.877 26.9686 25.8199 26.0257 25.8199 24.8667C25.8199 23.7077 24.877 22.7648 23.7179 22.7648C22.5589 22.7648 21.616 23.7077 21.616 24.8667ZM19.0258 23.5411C19.1295 23.1737 19.2762 22.8197 19.4629 22.4867L19.1626 21.8107C19.1319 21.7414 19.1228 21.6645 19.1366 21.59C19.1505 21.5155 19.1866 21.4469 19.2402 21.3933L20.2445 20.389C20.298 20.3354 20.3666 20.2993 20.4411 20.2855C20.5156 20.2716 20.5926 20.2807 20.6618 20.3115L21.3376 20.6116C21.6707 20.4248 22.0248 20.278 22.3924 20.1744L22.6578 19.4848C22.685 19.414 22.733 19.3532 22.7955 19.3103C22.858 19.2674 22.932 19.2445 23.0078 19.2445H24.428C24.5038 19.2445 24.5778 19.2674 24.6403 19.3103C24.7028 19.3532 24.7508 19.414 24.778 19.4848L25.0436 20.1747C25.411 20.2783 25.7649 20.425 26.0979 20.6118L26.774 20.3115C26.8433 20.2807 26.9202 20.2717 26.9947 20.2855C27.0692 20.2994 27.1378 20.3355 27.1914 20.3891L28.1957 21.3933C28.2493 21.4469 28.2853 21.5155 28.2992 21.59C28.313 21.6645 28.304 21.7414 28.2732 21.8107L27.973 22.4865C28.1599 22.8196 28.3066 23.1736 28.4103 23.5412L29.0999 23.8066C29.1707 23.8339 29.2315 23.8819 29.2744 23.9444C29.3173 24.0068 29.3402 24.0808 29.3402 24.1566V25.5769C29.3402 25.6527 29.3173 25.7267 29.2744 25.7891C29.2315 25.8516 29.1707 25.8996 29.0999 25.9268L28.4101 26.1923C28.3065 26.5598 28.1598 26.9138 27.973 27.2468L28.2732 27.9227C28.304 27.992 28.313 28.0689 28.2992 28.1435C28.2853 28.218 28.2493 28.2865 28.1957 28.3401L27.1914 29.3444C27.1378 29.398 27.0692 29.4341 26.9947 29.4479C26.9202 29.4618 26.8433 29.4527 26.774 29.422L26.0979 29.1217C25.7649 29.3085 25.411 29.4552 25.0436 29.5589L24.778 30.2487C24.7508 30.3194 24.7028 30.3803 24.6403 30.4231C24.5778 30.466 24.5038 30.489 24.428 30.489H23.0078C22.932 30.489 22.858 30.466 22.7955 30.4231C22.7331 30.3803 22.685 30.3194 22.6578 30.2487L22.3923 29.5589C22.0249 29.4552 21.671 29.3085 21.338 29.1217L20.6619 29.422C20.5926 29.4527 20.5157 29.4618 20.4412 29.4479C20.3667 29.4341 20.2981 29.398 20.2445 29.3444L19.2402 28.3401C19.1866 28.2865 19.1505 28.218 19.1367 28.1435C19.1228 28.069 19.1319 27.992 19.1626 27.9227L19.4628 27.2469C19.2759 26.9139 19.1292 26.5598 19.0256 26.1923L18.3359 25.9268C18.2652 25.8996 18.2044 25.8516 18.1615 25.7891C18.1186 25.7266 18.0956 25.6526 18.0956 25.5768V24.1566C18.0956 24.0808 18.1186 24.0068 18.1615 23.9443C18.2044 23.8818 18.2652 23.8338 18.3359 23.8066L19.0258 23.5411ZM18.8456 24.4141V25.3194L19.4747 25.5615C19.5315 25.5834 19.5822 25.6188 19.6223 25.6647C19.6623 25.7105 19.6907 25.7654 19.7047 25.8247C19.8057 26.2493 19.9739 26.655 20.203 27.0265C20.2349 27.0784 20.2537 27.1373 20.2578 27.1981C20.2619 27.2588 20.2511 27.3197 20.2264 27.3754L19.9526 27.9919L20.5927 28.6321L21.2096 28.3582C21.2652 28.3334 21.3261 28.3227 21.3869 28.3267C21.4476 28.3308 21.5065 28.3497 21.5584 28.3816C21.9298 28.6106 22.3354 28.7787 22.7599 28.8797C22.8192 28.8938 22.8741 28.9222 22.9199 28.9623C22.9658 29.0023 23.0012 29.053 23.023 29.1098L23.2652 29.7391H24.1705L24.4127 29.1098C24.4346 29.053 24.47 29.0024 24.5158 28.9623C24.5617 28.9222 24.6166 28.8939 24.6758 28.8797C25.1003 28.7787 25.5059 28.6106 25.8774 28.3816C25.9292 28.3497 25.9881 28.3308 26.0489 28.3268C26.1096 28.3227 26.1705 28.3335 26.2262 28.3582L26.843 28.6321L27.4831 27.9919L27.2092 27.3752C27.1845 27.3195 27.1737 27.2587 27.1778 27.1979C27.1819 27.1371 27.2007 27.0782 27.2326 27.0263C27.4616 26.6549 27.6298 26.2493 27.7308 25.8248C27.7449 25.7655 27.7732 25.7106 27.8133 25.6647C27.8534 25.6189 27.904 25.5835 27.9609 25.5616L28.5901 25.3194V24.4141L27.961 24.1719C27.9042 24.1501 27.8535 24.1147 27.8134 24.0688C27.7733 24.023 27.745 23.968 27.731 23.9088C27.63 23.4842 27.4618 23.0785 27.2327 22.707C27.2007 22.6551 27.1819 22.5962 27.1778 22.5355C27.1737 22.4747 27.1845 22.4138 27.2092 22.3581L27.4831 21.7416L26.843 21.1014L26.2262 21.3754C26.1705 21.4001 26.1097 21.4109 26.0489 21.4068C25.9881 21.4027 25.9293 21.3839 25.8774 21.352C25.506 21.123 25.1003 20.9549 24.6759 20.8538C24.6166 20.8397 24.5617 20.8114 24.5158 20.7713C24.47 20.7312 24.4346 20.6806 24.4127 20.6237L24.1705 19.9944H23.2652L23.0231 20.6235C23.0012 20.6803 22.9658 20.731 22.9199 20.7711C22.8741 20.8112 22.8192 20.8395 22.7599 20.8536C22.3353 20.9546 21.9296 21.1228 21.5581 21.3518C21.5062 21.3837 21.4473 21.4026 21.3866 21.4067C21.3258 21.4107 21.2649 21.4 21.2092 21.3752L20.5927 21.1014L19.9526 21.7415L20.2265 22.3583C20.2513 22.414 20.262 22.4748 20.258 22.5356C20.2539 22.5964 20.2351 22.6553 20.2032 22.7071C19.9742 23.0786 19.806 23.4842 19.705 23.9086C19.6909 23.9679 19.6626 24.0228 19.6225 24.0686C19.5824 24.1145 19.5317 24.1499 19.4749 24.1718L18.8456 24.4141ZM23.7402 25.6671C23.5722 25.6711 23.3617 25.6086 23.3145 25.4194C23.2904 25.3229 23.229 25.2399 23.1438 25.1887C23.0585 25.1375 22.9564 25.1222 22.8599 25.1463C22.7634 25.1703 22.6804 25.2318 22.6292 25.317C22.5779 25.4023 22.5627 25.5044 22.5868 25.6009C22.68 25.9749 22.9653 26.2524 23.3429 26.3637V26.3803C23.3429 26.4798 23.3824 26.5752 23.4528 26.6455C23.5231 26.7158 23.6185 26.7553 23.7179 26.7553C23.8174 26.7553 23.9128 26.7158 23.9831 26.6455C24.0534 26.5752 24.0929 26.4798 24.0929 26.3803V26.3705C24.3233 26.3105 24.5234 26.1953 24.6581 26.0396C24.8159 25.8571 24.8834 25.6295 24.8533 25.3815C24.7944 24.8958 24.4336 24.5952 23.7809 24.4881C23.536 24.4479 23.4095 24.3799 23.405 24.286C23.3979 24.1398 23.5674 24.0898 23.6195 24.078C23.745 24.0495 23.9823 24.0613 24.0763 24.2853C24.0952 24.3311 24.1229 24.3726 24.1578 24.4076C24.1928 24.4426 24.2343 24.4704 24.2801 24.4892C24.3258 24.5081 24.3748 24.5178 24.4243 24.5176C24.4737 24.5175 24.5227 24.5075 24.5683 24.4884C24.6139 24.4692 24.6553 24.4412 24.69 24.406C24.7248 24.3708 24.7522 24.3291 24.7708 24.2832C24.7893 24.2374 24.7986 24.1883 24.7981 24.1388C24.7976 24.0893 24.7873 24.0405 24.7678 23.995C24.6391 23.6884 24.3918 23.4697 24.0929 23.3722V23.3532C24.0929 23.2538 24.0534 23.1584 23.9831 23.0881C23.9128 23.0177 23.8174 22.9782 23.7179 22.9782C23.6185 22.9782 23.5231 23.0177 23.4528 23.0881C23.3824 23.1584 23.3429 23.2538 23.3429 23.3532V23.3772C22.9069 23.52 22.6348 23.8879 22.6559 24.3224C22.6694 24.6014 22.8178 25.09 23.6594 25.2282C24.0877 25.2985 24.1025 25.42 24.1088 25.4719C24.1143 25.5175 24.1034 25.5344 24.0908 25.549C24.0426 25.6047 23.9068 25.6631 23.7402 25.6671ZM18.6547 32.204C18.6901 32.2608 18.7096 32.326 18.7113 32.3929C18.713 32.4597 18.6968 32.5258 18.6643 32.5843C18.6318 32.6428 18.5843 32.6916 18.5267 32.7255C18.4691 32.7594 18.4034 32.7774 18.3365 32.7774H12.8691C12.8022 32.7774 12.7366 32.7595 12.6789 32.7256C12.6212 32.6916 12.5737 32.6429 12.5413 32.5844C12.5088 32.5259 12.4926 32.4598 12.4943 32.3929C12.496 32.326 12.5155 32.2608 12.5509 32.204L15.2846 27.8182C15.3182 27.7642 15.3651 27.7196 15.4208 27.6887C15.4765 27.6578 15.5391 27.6416 15.6028 27.6416C15.6665 27.6416 15.7291 27.6578 15.7848 27.6887C15.8405 27.7196 15.8873 27.7642 15.921 27.8182L18.6547 32.204ZM17.6609 32.0273L15.6028 28.7255L13.5448 32.0273H17.6609ZM35.5051 26.8388V30.6703C35.5051 30.7698 35.4656 30.8652 35.3952 30.9355C35.3249 31.0058 35.2295 31.0453 35.1301 31.0453H31.2986C31.1992 31.0453 31.1038 31.0058 31.0334 30.9355C30.9631 30.8652 30.9236 30.7698 30.9236 30.6703V26.8388C30.9236 26.7394 30.9631 26.644 31.0334 26.5737C31.1038 26.5034 31.1992 26.4638 31.2986 26.4638H35.1301C35.2295 26.4638 35.3249 26.5034 35.3952 26.5737C35.4656 26.644 35.5051 26.7394 35.5051 26.8388ZM34.7551 27.2138H31.6736V30.2953H34.7551V27.2138Z" fill="#2586C8"/>
</g>
<defs>
<clipPath id="clip0_349_1381">
<rect width="24" height="24" fill="white" transform="translate(12 12)"/>
</clipPath>
</defs>
</svg>
