<svg width="49" height="48" viewBox="0 0 49 48" fill="none" xmlns="http://www.w3.org/2000/svg">
<rect x="0.5" width="48" height="48" rx="8" fill="#EBF7FF"/>
<path d="M25 19.5C25.5192 19.5 26.0267 19.346 26.4584 19.0576C26.89 18.7692 27.2265 18.3592 27.4252 17.8795C27.6239 17.3999 27.6758 16.8721 27.5746 16.3629C27.4733 15.8537 27.2233 15.386 26.8562 15.0188C26.489 14.6517 26.0213 14.4017 25.5121 14.3004C25.0029 14.1992 24.4751 14.2511 23.9955 14.4498C23.5158 14.6485 23.1058 14.985 22.8174 15.4166C22.529 15.8483 22.375 16.3558 22.375 16.875C22.3758 17.571 22.6526 18.2382 23.1447 18.7303C23.6368 19.2224 24.304 19.4992 25 19.5ZM25 15C25.3708 15 25.7334 15.11 26.0417 15.316C26.35 15.522 26.5904 15.8149 26.7323 16.1575C26.8742 16.5001 26.9113 16.8771 26.839 17.2408C26.7666 17.6045 26.588 17.9386 26.3258 18.2008C26.0636 18.463 25.7295 18.6416 25.3658 18.714C25.0021 18.7863 24.6251 18.7492 24.2825 18.6073C23.9399 18.4654 23.647 18.225 23.441 17.9167C23.235 17.6084 23.125 17.2458 23.125 16.875C23.1256 16.3779 23.3233 15.9013 23.6748 15.5498C24.0263 15.1983 24.5029 15.0006 25 15Z" fill="#2586C8"/>
<path d="M22.0004 23.6249H22.7504V21.7499C22.7499 21.6515 22.7107 21.5572 22.6413 21.4874L17.6332 16.4463C17.5483 16.3608 17.5007 16.2453 17.5007 16.1249C17.5007 16.0045 17.5483 15.8889 17.6332 15.8035C17.713 15.7239 17.8198 15.6771 17.9324 15.6725C18.045 15.6678 18.1553 15.7056 18.2414 15.7784L20.8087 17.9598C21.979 18.954 23.4647 19.4999 25.0004 19.4999C26.5361 19.4999 28.0218 18.954 29.1922 17.9598L31.7594 15.7784C31.8486 15.7019 31.9641 15.6632 32.0814 15.6705C32.1986 15.6777 32.3085 15.7303 32.3876 15.8172C32.4667 15.9041 32.5089 16.0183 32.5051 16.1358C32.5014 16.2532 32.4521 16.3646 32.3677 16.4463L27.3595 21.4874C27.2901 21.5572 27.2509 21.6515 27.2504 21.7499V23.6249H28.0004V21.9048L32.8994 16.9754C33.1188 16.7562 33.2451 16.4606 33.2517 16.1505C33.2583 15.8404 33.1448 15.5397 32.9349 15.3113C32.725 15.083 32.435 14.9445 32.1254 14.925C31.8159 14.9055 31.5107 15.0063 31.2738 15.2065L28.7065 17.3883C27.6717 18.2673 26.3582 18.7499 25.0004 18.7499C23.6426 18.7499 22.3291 18.2673 21.2943 17.3883L18.727 15.2065C18.4901 15.0063 18.185 14.9055 17.8754 14.925C17.5658 14.9445 17.2758 15.083 17.0659 15.3113C16.856 15.5397 16.7425 15.8404 16.7491 16.1505C16.7558 16.4606 16.882 16.7562 17.1014 16.9754L22.0004 21.9048V23.6249ZM25.0004 33.7499C28.0672 33.7499 28.9278 32.9781 29.0155 32.89C29.0859 32.8197 29.1254 32.7243 29.1254 32.6249V31.1249C29.1246 30.4289 28.8478 29.7617 28.3557 29.2696C27.8636 28.7775 27.1964 28.5007 26.5004 28.4999H23.5004C22.8045 28.5007 22.1372 28.7775 21.6451 29.2696C21.153 29.7617 20.8762 30.4289 20.8754 31.1249V32.6249C20.8754 32.7243 20.915 32.8197 20.9853 32.89C21.073 32.9781 21.9337 33.7499 25.0004 33.7499ZM28.3754 32.4318C28.084 32.599 27.1612 32.9999 25.0004 32.9999C22.8494 32.9999 21.9254 32.6024 21.6254 32.4299V31.1249C21.626 30.6278 21.8237 30.1512 22.1752 29.7997C22.5267 29.4482 23.0033 29.2505 23.5004 29.2499H26.5004C26.9975 29.2505 27.4741 29.4482 27.8256 29.7997C28.1771 30.1512 28.3748 30.6278 28.3754 31.1249V32.4318Z" fill="#2586C8"/>
<path d="M25 29.25C25.5192 29.25 26.0267 29.096 26.4584 28.8076C26.89 28.5192 27.2265 28.1092 27.4252 27.6295C27.6239 27.1499 27.6758 26.6221 27.5746 26.1129C27.4733 25.6037 27.2233 25.136 26.8562 24.7688C26.489 24.4017 26.0213 24.1517 25.5121 24.0504C25.0029 23.9492 24.4751 24.0011 23.9955 24.1998C23.5158 24.3985 23.1058 24.735 22.8174 25.1666C22.529 25.5983 22.375 26.1058 22.375 26.625C22.3758 27.321 22.6526 27.9882 23.1447 28.4803C23.6368 28.9724 24.304 29.2492 25 29.25ZM25 24.75C25.3708 24.75 25.7334 24.86 26.0417 25.066C26.35 25.272 26.5904 25.5649 26.7323 25.9075C26.8742 26.2501 26.9113 26.6271 26.839 26.9908C26.7666 27.3545 26.588 27.6886 26.3258 27.9508C26.0636 28.213 25.7295 28.3916 25.3658 28.464C25.0021 28.5363 24.6251 28.4992 24.2825 28.3573C23.9399 28.2154 23.647 27.975 23.441 27.6667C23.235 27.3584 23.125 26.9958 23.125 26.625C23.1256 26.1279 23.3233 25.6513 23.6748 25.2998C24.0263 24.9483 24.5029 24.7506 25 24.75ZM17.875 32.625C18.6527 32.634 19.4296 32.5704 20.1955 32.4349L20.0545 31.6984C19.335 31.8246 18.6054 31.8837 17.875 31.875C15.724 31.875 14.8 31.4775 14.5 31.305V30C14.5006 29.5029 14.6983 29.0263 15.0498 28.6748C15.4013 28.3233 15.8779 28.1256 16.375 28.125H19.375C19.6845 28.1248 19.9892 28.2012 20.2619 28.3476C20.5345 28.4939 20.7667 28.7055 20.9376 28.9635L21.5624 28.5484C21.3231 28.1873 20.9981 27.8911 20.6164 27.6863C20.2347 27.4815 19.8082 27.3746 19.375 27.375H16.375C15.679 27.3758 15.0118 27.6526 14.5197 28.1447C14.0276 28.6368 13.7508 29.3041 13.75 30V31.5C13.75 31.5994 13.7895 31.6948 13.8599 31.7651C13.9476 31.8533 14.8082 32.625 17.875 32.625Z" fill="#2586C8"/>
<path d="M17.875 28.125C18.3942 28.125 18.9017 27.971 19.3334 27.6826C19.7651 27.3942 20.1015 26.9842 20.3002 26.5045C20.4989 26.0249 20.5508 25.4971 20.4496 24.9879C20.3483 24.4787 20.0983 24.011 19.7312 23.6438C19.364 23.2767 18.8963 23.0267 18.3871 22.9254C17.8779 22.8242 17.3501 22.8761 16.8705 23.0748C16.3908 23.2735 15.9808 23.61 15.6924 24.0416C15.404 24.4733 15.25 24.9808 15.25 25.5C15.2508 26.196 15.5276 26.8632 16.0197 27.3553C16.5118 27.8474 17.1791 28.1242 17.875 28.125ZM17.875 23.625C18.2458 23.625 18.6084 23.735 18.9167 23.941C19.225 24.147 19.4654 24.4399 19.6073 24.7825C19.7492 25.1251 19.7863 25.5021 19.714 25.8658C19.6416 26.2295 19.463 26.5636 19.2008 26.8258C18.9386 27.0881 18.6045 27.2666 18.2408 27.339C17.8771 27.4113 17.5001 27.3742 17.1575 27.2323C16.8149 27.0904 16.522 26.85 16.316 26.5417C16.11 26.2334 16 25.8708 16 25.5C16.0006 25.0029 16.1983 24.5263 16.5498 24.1748C16.9013 23.8233 17.3779 23.6256 17.875 23.625ZM32.125 32.625C35.1918 32.625 36.0524 31.8533 36.1401 31.7651C36.2105 31.6948 36.25 31.5995 36.25 31.5V30C36.2492 29.3041 35.9724 28.6368 35.4803 28.1447C34.9882 27.6526 34.3209 27.3758 33.625 27.375H30.625C30.1918 27.3746 29.7653 27.4816 29.3836 27.6863C29.0019 27.8911 28.6769 28.1873 28.4376 28.5484L29.0624 28.9635C29.2333 28.7055 29.4655 28.4939 29.7381 28.3476C30.0108 28.2012 30.3155 28.1248 30.625 28.125H33.625C34.1221 28.1256 34.5987 28.3233 34.9502 28.6748C35.3017 29.0263 35.4994 29.5029 35.5 30V31.3069C35.2086 31.4741 34.2858 31.875 32.125 31.875C31.3946 31.8837 30.665 31.8246 29.9455 31.6984L29.8045 32.4349C30.5704 32.5704 31.3473 32.634 32.125 32.625Z" fill="#2586C8"/>
<path d="M32.125 28.125C32.6442 28.125 33.1517 27.971 33.5834 27.6826C34.015 27.3942 34.3515 26.9842 34.5502 26.5045C34.7489 26.0249 34.8008 25.4971 34.6996 24.9879C34.5983 24.4787 34.3483 24.011 33.9812 23.6438C33.614 23.2767 33.1463 23.0267 32.6371 22.9254C32.1279 22.8242 31.6001 22.8761 31.1205 23.0748C30.6408 23.2735 30.2308 23.61 29.9424 24.0416C29.654 24.4733 29.5 24.9808 29.5 25.5C29.5008 26.196 29.7776 26.8632 30.2697 27.3553C30.7618 27.8474 31.429 28.1242 32.125 28.125ZM32.125 23.625C32.4958 23.625 32.8584 23.735 33.1667 23.941C33.475 24.147 33.7154 24.4399 33.8573 24.7825C33.9992 25.1251 34.0363 25.5021 33.964 25.8658C33.8916 26.2295 33.713 26.5636 33.4508 26.8258C33.1886 27.088 32.8545 27.2666 32.4908 27.339C32.1271 27.4113 31.7501 27.3742 31.4075 27.2323C31.0649 27.0904 30.772 26.85 30.566 26.5417C30.36 26.2334 30.25 25.8708 30.25 25.5C30.2506 25.0029 30.4483 24.5263 30.7998 24.1748C31.1513 23.8233 31.6279 23.6256 32.125 23.625Z" fill="#2586C8"/>
</svg>
