<svg width="49" height="49" viewBox="0 0 49 49" fill="none" xmlns="http://www.w3.org/2000/svg">
<rect x="0.833984" y="0.5" width="48" height="48" rx="8" fill="#EBF7FF"/>
<g clip-path="url(#clip0_349_1447)">
<path d="M36.6364 32.9207C36.3089 32.3535 35.7995 31.9327 35.1881 31.7176C36.1109 31.0835 36.5825 29.9139 36.2766 28.7724C35.8887 27.3243 34.3948 26.4621 32.9471 26.85L32.4751 26.9764C32.7673 26.2425 32.9479 25.4708 33.013 24.6716C33.0341 24.4136 32.842 24.1874 32.5839 24.1664C32.3257 24.1451 32.0997 24.3374 32.0787 24.5954C32.0012 25.5455 31.7396 26.4513 31.3006 27.2911L29.0061 27.906C29.0402 27.6934 29.0575 27.4784 29.0577 27.2631C29.0577 26.5104 28.8562 26.0694 28.6613 25.643C28.4389 25.1562 28.2089 24.6529 28.2089 23.4843C28.2089 23.2974 28.0978 23.1283 27.9263 23.0541C27.8424 23.0177 27.7497 23.0068 27.6596 23.0225C27.5695 23.0382 27.486 23.08 27.4193 23.1426C26.9693 23.5651 26.6796 24.0227 26.4947 24.458C26.3491 24.2547 26.1782 24.071 25.986 23.9111C25.508 23.5143 25.4289 23.1044 25.7041 22.4492C25.7406 22.3622 25.7501 22.2661 25.7311 22.1736C25.7121 22.0811 25.6656 21.9964 25.5978 21.9308C25.5299 21.8651 25.4437 21.8215 25.3506 21.8057C25.2575 21.7898 25.1618 21.8024 25.076 21.8419C24.1293 22.2775 23.6063 22.8987 23.3241 23.5124C23.3319 23.4632 23.341 23.4136 23.3517 23.3633C23.3741 23.2585 23.36 23.1491 23.3116 23.0535C23.2632 22.9579 23.1835 22.8818 23.0857 22.8378C22.988 22.7938 22.8782 22.7846 22.7745 22.8118C22.6708 22.839 22.5796 22.9009 22.516 22.9872C21.3862 24.5209 20.946 25.7197 20.946 27.2631C20.946 27.48 20.964 27.6945 20.9976 27.9059L18.7037 27.2913C18.1784 26.2842 17.9012 25.1541 17.9012 24.01C17.9012 22.739 18.2278 22.0245 18.6058 21.1971C19.0377 20.252 19.5185 19.2001 19.6547 17.205C20.5671 18.3895 20.8965 19.6315 21.004 20.5399C21.0161 20.6415 21.061 20.7365 21.1321 20.8102C21.2032 20.8839 21.2964 20.9323 21.3976 20.948C21.4987 20.9637 21.6022 20.9458 21.6923 20.8972C21.7824 20.8485 21.854 20.7717 21.8963 20.6785C22.3762 19.6211 23.0357 18.7397 23.8564 18.0584C24.6508 17.3991 25.1095 16.6727 25.2588 15.8376C25.337 15.4 25.3275 14.9379 25.2286 14.4422C26.6641 15.3877 27.492 16.7257 27.6944 18.4323C27.8821 20.0143 27.4419 21.3425 27.4377 21.355C27.4031 21.4564 27.4042 21.5665 27.441 21.6672C27.4777 21.7678 27.5478 21.8528 27.6395 21.908C27.7313 21.9633 27.8392 21.9854 27.9453 21.9707C28.0514 21.9561 28.1493 21.9056 28.2227 21.8276C28.3064 21.7386 29.9384 19.9678 30.0614 17.2857C30.8121 18.4668 31.3123 19.5243 31.6336 20.5907C31.7083 20.8385 31.9697 20.979 32.2177 20.9043C32.4655 20.8296 32.6059 20.5681 32.5312 20.3203C32.0533 18.734 31.2197 17.1845 29.8285 15.2959C29.7649 15.2096 29.6737 15.1477 29.57 15.1205C29.4663 15.0933 29.3565 15.1024 29.2587 15.1464C29.161 15.1904 29.0813 15.2666 29.0329 15.3622C28.9845 15.4578 28.9703 15.5672 28.9928 15.672C29.2519 16.883 29.1463 18.0929 28.6789 19.2742C28.6803 18.9683 28.6639 18.6626 28.6297 18.3586C28.4398 16.6864 27.5914 14.4069 24.6279 13.0434C24.5421 13.0039 24.4464 12.9913 24.3533 13.0071C24.2602 13.023 24.174 13.0666 24.1061 13.1323C24.0382 13.198 23.9918 13.2826 23.9728 13.3751C23.9539 13.4677 23.9633 13.5638 23.9999 13.6508C24.6702 15.2466 24.4482 16.3491 23.2577 17.3373C22.6469 17.8442 22.116 18.4465 21.6709 19.1361C21.353 18.0525 20.7324 16.8096 19.5446 15.6945C19.478 15.6319 19.3945 15.5902 19.3044 15.5745C19.2143 15.5588 19.1216 15.5697 19.0377 15.6061C18.9538 15.6424 18.8823 15.7024 18.8321 15.7789C18.7819 15.8553 18.7551 15.9447 18.7551 16.0362C18.7551 18.6153 18.2458 19.7298 17.7533 20.8076C17.3473 21.6959 16.9639 22.5351 16.9639 24.0101C16.9639 25.0286 17.1582 26.0376 17.5305 26.977L17.0567 26.8501C15.6088 26.462 14.1151 27.3245 13.7271 28.7724C13.4212 29.914 13.8929 31.0835 14.8156 31.7177C14.2043 31.9328 13.6948 32.3537 13.3673 32.9208C13.0043 33.5497 12.9078 34.2824 13.0958 34.9838C13.2837 35.6852 13.7336 36.2715 14.3624 36.6346C14.7814 36.8764 15.2462 37 15.7173 37C15.9564 36.9998 16.1945 36.9683 16.4254 36.9062L25.002 34.608L33.5786 36.9062C33.8095 36.9683 34.0475 36.9998 34.2866 37C34.7577 37 35.2226 36.8764 35.6415 36.6346C36.2703 36.2715 36.7202 35.6852 36.9081 34.9838C37.096 34.2823 36.9995 33.5496 36.6364 32.9207ZM33.1897 27.7555C34.1382 27.5015 35.1169 28.0664 35.3711 29.015C35.4943 29.4746 35.431 29.9545 35.1932 30.3666C34.9553 30.7786 34.5712 31.0733 34.1117 31.1965L18.1656 35.4692C18.4532 34.8803 18.5188 34.2155 18.3476 33.5764C18.1763 32.9373 17.7871 32.3944 17.2436 32.0282L33.1897 27.7555ZM21.8834 27.2632C21.8834 26.367 22.0518 25.619 22.4665 24.8105C22.7087 25.7618 23.2613 26.3611 23.2958 26.3978C23.4466 26.5582 23.6883 26.5911 23.8773 26.4784C24.0662 26.3656 24.151 26.1356 24.0814 25.9269C24.0559 25.8505 23.5719 24.3406 24.6195 23.2744C24.6649 23.7913 24.9211 24.2456 25.3872 24.6325C25.9826 25.1267 26.1451 25.8748 26.1884 26.1928C26.1955 26.3166 26.2071 26.3928 26.2095 26.4071C26.2489 26.6506 26.4699 26.8224 26.7159 26.7987C26.8342 26.7876 26.9439 26.732 27.0228 26.6431C27.1017 26.5542 27.1438 26.4386 27.1407 26.3198C27.1403 26.3062 27.1376 26.2241 27.1211 26.0944C27.1102 25.8408 27.1288 25.3282 27.381 24.7701C27.4895 25.3342 27.6603 25.708 27.8087 26.0326C27.9895 26.4284 28.1202 26.7145 28.1202 27.2631C28.1202 27.5771 28.0734 27.8845 27.9825 28.1802L25.0018 28.9789L22.0211 28.1802C21.9296 27.8831 21.8832 27.574 21.8834 27.2632ZM14.6324 29.015C14.8866 28.0664 15.8654 27.5014 16.8139 27.7555L23.1908 29.4642L20.6553 30.1436L17.259 29.2335C17.0089 29.1665 16.7519 29.3149 16.6849 29.565C16.6179 29.815 16.7663 30.072 17.0164 30.139L18.8443 30.6288L16.3089 31.3082L15.892 31.1964C14.9432 30.9423 14.3782 29.9636 14.6324 29.015ZM14.831 35.8226C14.419 35.5847 14.1242 35.2006 14.0011 34.7411C13.878 34.2815 13.9412 33.8015 14.179 33.3895C14.4169 32.9774 14.801 32.6828 15.2606 32.5596C15.4119 32.5189 15.5678 32.4983 15.7245 32.4982C16.0331 32.4982 16.3377 32.5792 16.6121 32.7375C17.0242 32.9754 17.3189 33.3595 17.4421 33.819C17.5652 34.2786 17.502 34.7586 17.2641 35.1707C17.0263 35.5827 16.6421 35.8774 16.1826 36.0005C15.723 36.1236 15.243 36.0604 14.831 35.8226ZM32.0557 32.7179C31.8733 32.9785 31.738 33.2691 31.6561 33.5764C31.4848 34.2155 31.5505 34.8803 31.838 35.4692L26.8128 34.1227L32.0557 32.7179ZM36.0025 34.7411C35.8793 35.2006 35.5846 35.5847 35.1726 35.8226C34.7605 36.0604 34.2805 36.1237 33.821 36.0005C33.3614 35.8774 32.9774 35.5827 32.7395 35.1707C32.5016 34.7586 32.4384 34.2786 32.5615 33.819C32.6847 33.3595 32.9794 32.9754 33.3914 32.7375C33.6658 32.5791 33.9704 32.4982 34.2791 32.4982C34.4338 32.4982 34.5895 32.5186 34.743 32.5596C35.2026 32.6828 35.5867 32.9774 35.8245 33.3895C36.0624 33.8015 36.1256 34.2815 36.0025 34.7411Z" fill="#2586C8"/>
<path d="M24.4289 31.4616L20.2636 32.5777C20.0135 32.6447 19.8651 32.9017 19.9321 33.1517C19.9882 33.3612 20.1776 33.4993 20.3846 33.4993C20.4247 33.4993 20.4656 33.4941 20.5062 33.4832L24.6715 32.367C24.9216 32.3 25.07 32.043 25.003 31.793C24.936 31.543 24.6789 31.3945 24.4289 31.4616ZM27.1907 30.7216C26.9406 30.7886 26.7922 31.0456 26.8593 31.2956C26.9154 31.505 27.1047 31.6432 27.3117 31.6432C27.3528 31.6432 27.3937 31.6377 27.4333 31.6271L32.9871 30.1389C33.2371 30.0719 33.3855 29.8149 33.3185 29.5649C33.2515 29.3149 32.9945 29.1664 32.7445 29.2335L27.1907 30.7216ZM32.1647 22.1925C32.0769 22.2807 32.0275 22.4 32.0274 22.5244C32.0274 22.6477 32.0771 22.7681 32.1647 22.8558C32.2528 22.9434 32.3719 22.9928 32.4961 22.9931C32.6194 22.9931 32.7399 22.943 32.8275 22.8558C32.915 22.7676 32.9643 22.6486 32.9649 22.5244C32.9644 22.4 32.9151 22.2808 32.8275 22.1925C32.7394 22.1051 32.6203 22.0559 32.4961 22.0557C32.3724 22.0557 32.2515 22.1054 32.1647 22.1925Z" fill="#2586C8"/>
</g>
<defs>
<clipPath id="clip0_349_1447">
<rect width="24" height="24" fill="white" transform="translate(13 13)"/>
</clipPath>
</defs>
</svg>
