<svg width="48" height="48" viewBox="0 0 48 48" fill="none" xmlns="http://www.w3.org/2000/svg">
<rect width="48" height="48" rx="8" fill="#EBF7FF"/>
<path d="M34.7695 23.5254C34.7695 21.9796 34.0245 20.7315 32.9152 20.339C32.9758 20.0605 33.0062 19.7762 33.0059 19.4912C33.0059 17.6702 31.7809 16.1873 30.2712 16.1749C29.9813 14.7546 28.7835 13.6875 27.4102 13.6875C25.8933 13.6875 24.4805 15.0444 24.4805 16.8809V31.1191C24.4805 32.9557 25.8934 34.3125 27.4102 34.3125C28.7975 34.3125 30.0925 33.1803 30.3084 31.5872C31.8009 31.5508 33.0059 30.0774 33.0059 28.2715C33.0059 27.743 32.905 27.2338 32.7113 26.7731C33.9165 26.4674 34.7695 25.1729 34.7695 23.5254ZM32.154 25.9043C32.1529 25.9043 32.1518 25.9045 32.1507 25.9045C32.1494 25.9045 32.1481 25.9044 32.1468 25.9044C32.0788 25.9054 30.4431 25.9219 30.3387 24.4416C30.3204 24.1833 30.0957 23.9882 29.8381 24.007C29.5799 24.0253 29.3853 24.2493 29.4035 24.5076C29.4728 25.4898 29.9847 26.208 30.8841 26.5843C31.1695 26.7038 31.4506 26.7679 31.6767 26.8023C31.9328 27.2255 32.0683 27.7327 32.0683 28.2715C32.0683 29.5832 31.2535 30.6504 30.2519 30.6504C30.2162 30.6504 30.18 30.6484 30.1437 30.6455C29.9455 30.3237 29.5649 29.8201 29.0463 29.6573C28.7319 29.5587 28.4102 29.595 28.1159 29.7625C27.8908 29.8905 27.8122 30.1766 27.9401 30.4017C28.068 30.6267 28.3542 30.7054 28.5793 30.5774C28.6581 30.5326 28.7105 30.5347 28.7649 30.5516C28.99 30.6217 29.252 30.9624 29.3997 31.2287C29.3457 32.5173 28.3459 33.375 27.4102 33.375C26.4481 33.375 25.418 32.4685 25.418 31.1191V16.8809C25.418 15.5315 26.4481 14.625 27.4102 14.625C28.2921 14.625 29.2738 15.3692 29.39 16.6146C29.3916 16.6317 29.394 16.6485 29.397 16.6652C29.3956 16.7 29.3977 16.7355 29.4043 16.7713C29.4051 16.7758 29.4896 17.2314 29.517 17.743C29.5529 18.415 29.4625 18.7103 29.4117 18.7917C29.1726 18.832 29.0012 19.0504 29.0233 19.2959C29.0465 19.5538 29.2743 19.7439 29.5322 19.7207C29.7795 19.6985 29.9931 19.5775 30.1495 19.3708C30.5404 18.8545 30.4921 17.808 30.4066 17.1215C31.336 17.2248 32.0683 18.2478 32.0683 19.4912C32.0683 19.8127 32.0192 20.1253 31.9226 20.4202C31.8126 20.7556 32.0288 21.1082 32.3768 21.1651C33.2336 21.3047 33.8319 22.2753 33.8319 23.5254C33.832 24.8816 33.1116 25.9043 32.154 25.9043ZM23.543 13.6875H23.2528C22.4141 13.6875 21.7319 14.3698 21.7319 15.2083V15.6774C21.7319 15.9358 21.5571 16.1666 21.3069 16.2386C20.7277 16.4054 20.1691 16.6369 19.6416 16.9287C19.4071 17.0583 19.1249 17.0207 18.9393 16.835L18.607 16.5028C18.0128 15.9085 17.0506 15.9083 16.4563 16.5028L16.0458 16.9132C15.4529 17.5063 15.4529 18.4711 16.0458 19.0641L16.3781 19.3963C16.5637 19.5819 16.6013 19.8641 16.4716 20.0986C16.1799 20.6261 15.9485 21.1847 15.7816 21.764C15.7096 22.0142 15.4789 22.189 15.2205 22.189H14.7513C13.9127 22.189 13.2305 22.8712 13.2305 23.7098V24.2902C13.2305 25.1289 13.9127 25.8111 14.7513 25.8111H15.2204C15.4788 25.8111 15.7095 25.9859 15.7815 26.2362C15.9484 26.8154 16.1799 27.374 16.4716 27.9015C16.6012 28.1359 16.5637 28.4182 16.3781 28.6037L16.0457 28.936C15.4528 29.529 15.4528 30.4938 16.0457 31.0868L16.4561 31.4972C17.0504 32.0916 18.0125 32.0918 18.6069 31.4973L18.9392 31.165C19.1248 30.9794 19.4071 30.9417 19.6415 31.0714C20.169 31.3631 20.7276 31.5946 21.3068 31.7615C21.5571 31.8335 21.7318 32.0642 21.7318 32.3226V32.7917C21.7318 33.6303 22.4141 34.3125 23.2527 34.3125H23.5429C23.8018 34.3125 24.0116 34.1026 24.0116 33.8438V14.1562C24.0117 13.8974 23.8019 13.6875 23.543 13.6875ZM23.0742 28.4285C20.8383 28.1935 19.0898 26.2972 19.0898 24C19.0898 21.7028 20.8383 19.8065 23.0742 19.5715V28.4285ZM22.6694 32.7917V32.3226C22.6694 31.6487 22.2157 31.0475 21.5662 30.8606C21.0545 30.7132 20.5611 30.5087 20.0952 30.251C19.5008 29.9222 18.7529 30.0256 18.2763 30.5021L17.944 30.8344C17.716 31.0624 17.3471 31.0624 17.1191 30.8344L16.7086 30.424C16.4812 30.1965 16.4812 29.8264 16.7086 29.599L17.041 29.2667C17.5176 28.7901 17.6208 28.0421 17.292 27.4478C17.0344 26.9819 16.8299 26.4885 16.6825 25.9769C16.4956 25.3273 15.8944 24.8736 15.2204 24.8736H14.7513C14.4296 24.8736 14.168 24.6119 14.168 24.2902V23.7098C14.168 23.3881 14.4297 23.1264 14.7513 23.1264H15.2204C15.8943 23.1264 16.4955 22.6727 16.6825 22.0231C16.8299 21.5116 17.0343 21.0182 17.292 20.5522C17.6207 19.9578 17.5175 19.2099 17.0409 18.7333L16.7086 18.401C16.4812 18.1736 16.4812 17.8035 16.7086 17.5761L17.1191 17.1656C17.3471 16.9377 17.716 16.9376 17.9441 17.1657L18.2763 17.4979C18.7529 17.9745 19.5008 18.0777 20.0953 17.749C20.5612 17.4913 21.0546 17.2868 21.5662 17.1395C22.2157 16.9525 22.6694 16.3513 22.6694 15.6773V15.2083C22.6694 14.949 22.8397 14.7288 23.0743 14.6532V18.63C20.3205 18.8683 18.1524 21.1855 18.1524 24C18.1524 26.8145 20.3205 29.1317 23.0743 29.37V33.3468C22.8397 33.2712 22.6694 33.0511 22.6694 32.7917Z" fill="#2586C8"/>
</svg>
