<svg width="48" height="48" viewBox="0 0 48 48" fill="none" xmlns="http://www.w3.org/2000/svg">
<rect width="48" height="48" rx="8" fill="#EBF7FF"/>
<path d="M33.6188 17.24H17.4988C16.3548 17.24 15.4188 18.176 15.4188 19.32V20.1C15.4188 20.386 15.6528 20.62 15.9388 20.62C16.2248 20.62 16.4588 20.386 16.4588 20.1V19.32C16.4588 19.216 16.4848 19.112 16.5108 19.008L22.3348 24L16.5108 28.992C16.4848 28.888 16.4588 28.784 16.4588 28.68V27.9C16.4588 27.614 16.2248 27.38 15.9388 27.38C15.6528 27.38 15.4188 27.614 15.4188 27.9V28.68C15.4188 29.824 16.3548 30.76 17.4988 30.76H33.6188C34.7628 30.76 35.6988 29.824 35.6988 28.68V19.32C35.6988 18.176 34.7628 17.24 33.6188 17.24ZM17.2908 18.306C17.3428 18.28 17.4208 18.28 17.4988 18.28H33.6188C33.6968 18.28 33.7748 18.28 33.8268 18.306L25.8968 25.092C25.6888 25.248 25.4288 25.248 25.2208 25.092L17.2908 18.306ZM33.6188 29.72H17.4988C17.4208 29.72 17.3428 29.72 17.2908 29.694L23.1408 24.676L24.5448 25.898C24.8308 26.158 25.1948 26.288 25.5588 26.288C25.9228 26.288 26.2868 26.158 26.5728 25.898L27.9768 24.676L33.8268 29.694C33.7748 29.72 33.6968 29.72 33.6188 29.72ZM34.6588 28.68C34.6588 28.784 34.6328 28.888 34.6068 28.992L28.7828 24L34.6068 19.008C34.6328 19.112 34.6588 19.216 34.6588 19.32V28.68ZM13.8588 22.7C13.8588 22.414 14.0928 22.18 14.3788 22.18H17.4988C17.7848 22.18 18.0188 22.414 18.0188 22.7C18.0188 22.986 17.7848 23.22 17.4988 23.22H14.3788C14.0928 23.22 13.8588 22.986 13.8588 22.7ZM17.4988 25.82H12.8188C12.5328 25.82 12.2988 25.586 12.2988 25.3C12.2988 25.014 12.5328 24.78 12.8188 24.78H17.4988C17.7848 24.78 18.0188 25.014 18.0188 25.3C18.0188 25.586 17.7848 25.82 17.4988 25.82Z" fill="#2586C8"/>
</svg>
