<svg width="49" height="48" viewBox="0 0 49 48" fill="none" xmlns="http://www.w3.org/2000/svg">
<rect x="0.5" width="48" height="48" rx="8" fill="#EBF7FF"/>
<g clip-path="url(#clip0_349_1426)">
<path d="M35.1672 15.6223C34.8422 14.6 34.4016 13.868 34.383 13.8373C34.3107 13.7182 34.162 13.6563 34.0273 13.6872C33.9924 13.6951 33.1604 13.8893 32.2008 14.3686C30.9052 15.0154 30.0002 15.8789 29.5833 16.8654C29.2363 17.6869 29.1864 18.6912 29.4326 19.8007C28.9082 19.215 28.3182 18.7026 27.6751 18.2712C27.4787 17.8833 26.9595 16.9281 26.1477 15.9299C25.8804 15.6013 25.3661 16.0137 25.6362 16.3456C26.1832 17.0184 26.5949 17.68 26.8524 18.1346L23.8499 17.5493L20.9974 13.6584C21.2743 13.6622 21.5523 13.689 21.8289 13.7432C22.7057 13.9149 23.5719 14.3615 24.4036 15.0704C24.7295 15.3482 25.1528 14.8426 24.8311 14.5686C23.9123 13.7855 22.9448 13.29 21.9555 13.0963C20.4453 12.8007 18.6839 13.1887 16.8613 14.2187C15.5028 14.9863 14.5944 15.8295 14.5564 15.865C14.4349 15.9785 14.4156 16.1848 14.5173 16.3174C14.6506 16.5908 15.1554 17.5766 15.9956 18.638C16.491 19.2638 17.0134 19.7994 17.5538 20.2396C17.3995 20.3687 17.2502 20.5038 17.1063 20.6444C16.3339 21.3999 15.7425 22.291 15.3544 23.2652C15.0112 24.126 14.8266 25.052 14.8163 26.0065C14.7993 27.5672 15.2515 29.0724 16.1243 30.3598C16.977 31.6172 18.169 32.5826 19.5714 33.1515C19.9639 33.3104 20.2121 32.7 19.8193 32.5407C19.3151 32.3359 18.8365 32.0727 18.3936 31.7564C18.4499 31.4441 18.5805 30.3202 17.834 29.1568C17.7294 28.994 18.0419 28.3549 18.2284 27.9731C18.4209 27.5797 18.6196 27.1729 18.7125 26.7899C18.8111 26.383 18.7001 26.0415 18.3918 25.8018C18.1655 25.6259 17.8693 25.5349 17.6082 25.4545C17.4386 25.4023 17.2463 25.3433 17.1777 25.286C17.0362 25.1675 16.8052 24.7296 16.6196 24.3779C16.4135 23.9877 16.2175 23.6164 16.0172 23.3877C16.4678 22.3176 17.1915 21.3708 18.0979 20.6463C18.9258 21.2104 19.8708 21.5995 20.8753 21.6784C19.7104 22.5809 19.3336 23.7335 19.8722 24.8407C20.5012 26.1335 21.7958 25.9269 22.9379 25.745C23.1355 25.7134 23.34 25.6808 23.5359 25.6564C23.6093 25.6472 23.6315 25.6673 23.6463 25.6803C23.8963 25.9028 23.8889 26.9653 23.8836 27.7412C23.8763 28.8144 23.8694 29.8282 24.2692 30.3487C24.4731 30.614 24.7603 30.7497 25.0969 30.7497C25.2986 30.7497 25.5178 30.701 25.7477 30.6024C26.7418 30.1767 27.7752 28.8955 27.6176 27.8817C27.4798 26.9954 27.3886 26.4098 27.6036 25.9378C27.8023 25.5009 28.2827 25.0965 29.2287 24.5804C29.3441 25.1009 29.3993 25.6328 29.3932 26.1659C29.3731 28.0245 28.6301 29.7641 27.3014 31.0639C25.8165 32.5165 23.7295 33.234 21.665 33.0064C21.2444 32.9608 21.1717 33.6153 21.5929 33.6617C23.8527 33.9106 26.1374 33.125 27.7623 31.5352C29.2171 30.1121 30.0303 28.2078 30.0524 26.1729C30.0818 23.4748 28.6974 21.0844 26.5899 19.7074C27.0254 19.3969 27.3498 19.1284 27.5297 18.9726C28.2981 19.5238 28.9796 20.2029 29.5466 20.9941C30.9078 22.8937 31.4477 25.2095 31.067 27.5153C30.2808 32.275 25.7692 35.5081 21.0086 34.7216C18.7027 34.3408 16.6833 33.0851 15.3221 31.1854C13.9608 29.2859 13.4209 26.9698 13.8017 24.6642C13.8701 24.2493 13.2202 24.1404 13.1515 24.5568C12.7418 27.0363 13.3226 29.5268 14.7861 31.5695C16.2499 33.612 18.4218 34.9625 20.9012 35.3722C21.4146 35.4571 21.9341 35.4998 22.4544 35.5C24.4032 35.5 26.2988 34.895 27.9142 33.7374C29.9573 32.2736 31.3079 30.1022 31.7173 27.6227C32.0173 25.8058 31.7851 23.983 31.0639 22.3348C31.3968 22.2366 31.9632 22.046 32.5837 21.7362C33.879 21.0894 34.7841 20.2259 35.2009 19.2394C35.6181 18.2527 35.6064 17.0019 35.1672 15.6223ZM16.0365 24.6855C16.2818 25.1505 16.5137 25.5899 16.7547 25.7915C16.9254 25.9342 17.163 26.0073 17.4144 26.0846C18.0587 26.2826 18.1335 26.3798 18.0717 26.6346C17.9959 26.9478 17.813 27.3219 17.6362 27.6835C17.2958 28.3801 16.9743 29.0376 17.2791 29.5127C17.6145 30.0336 17.788 30.6422 17.7778 31.2616C15.8146 29.4913 15.0152 26.6952 15.7465 24.1537C15.8434 24.3199 15.9453 24.513 16.0365 24.6855ZM31.9838 18.208L31.0471 15.938C31.5029 15.5117 32.0318 15.1909 32.4822 14.965C32.8659 14.7725 33.2309 14.6286 33.5237 14.5265L31.9838 18.208ZM34.1314 14.7821C34.2622 15.0633 34.414 15.426 34.5436 15.8359C34.6858 16.2858 34.8162 16.8434 34.8422 17.425L32.647 18.3306L34.1314 14.7821ZM30.1904 17.1221C30.2876 16.8921 30.4133 16.679 30.5585 16.4822L31.6248 19.0661L30.6679 21.3543C30.5335 21.0691 30.3752 20.6944 30.2408 20.2688C29.9712 19.4167 29.7438 18.1788 30.1904 17.1221ZM32.3021 21.1398C31.9329 21.3252 31.5805 21.4655 31.2935 21.5667L32.2865 19.1927L34.8142 18.1497C34.7775 18.4329 34.7076 18.7136 34.5937 18.9828C34.1473 20.0395 33.1011 20.7392 32.3021 21.1398ZM20.4167 20.9522C20.3008 20.9293 20.1858 20.9018 20.072 20.8698L23.72 18.1957L26.7238 18.7811C25.6296 19.6433 22.9667 21.4518 20.4167 20.9522ZM17.0828 18.8899C16.3026 18.049 15.7308 17.15 15.4024 16.5743L19.225 17.3196L17.0828 18.8899ZM17.7579 14.4922L19.3572 16.6737L15.5099 15.9237C15.9943 15.5413 16.7938 14.9671 17.7579 14.4922ZM20.3108 16.8596L18.3719 14.2148C18.9524 13.9763 19.5754 13.7886 20.2141 13.7051L22.8965 17.3635L20.3108 16.8596ZM20.1057 17.4912L22.8395 18.024L19.3309 20.5958C18.6692 20.2903 18.0737 19.8509 17.5527 19.3626L20.1057 17.4912ZM29.0496 23.9278C27.8613 24.5609 27.2795 25.0582 27.0034 25.6648C26.7069 26.3161 26.8156 27.0153 26.9659 27.9829C27.0548 28.5535 26.3767 29.616 25.4881 29.9965C25.1594 30.1373 24.9252 30.1207 24.7919 29.947C24.53 29.6061 24.5371 28.5745 24.5428 27.7457C24.5506 26.599 24.5575 25.6087 24.0844 25.1878C23.9142 25.0365 23.6966 24.9725 23.4547 25.0022C23.2475 25.028 23.0372 25.0615 22.8341 25.0939C21.6225 25.287 20.86 25.3643 20.4651 24.5523C19.8251 23.2371 21.1205 22.2629 21.7072 21.9051C21.8267 21.8323 21.9375 21.7465 22.0405 21.6509C23.4584 21.4815 24.7982 20.8731 25.9922 20.1111C27.4236 20.9663 28.5226 22.3199 29.0496 23.9278Z" fill="#2586C8"/>
</g>
<defs>
<clipPath id="clip0_349_1426">
<rect width="23" height="23" fill="white" transform="translate(13 13)"/>
</clipPath>
</defs>
</svg>
