<svg width="49" height="49" viewBox="0 0 49 49" fill="none" xmlns="http://www.w3.org/2000/svg">
<rect x="0.5" y="0.5" width="48" height="48" rx="8" fill="#EBF7FF"/>
<g clip-path="url(#clip0_349_1457)">
<path d="M31.6087 15.5362C30.1932 14.2047 28.2087 13.3311 26.0206 13.0767C23.8793 12.8278 21.7268 13.1853 19.9603 14.0832C18.5327 14.8088 17.4016 15.8756 16.6895 17.1682C15.8911 18.6177 15.6078 20.3232 15.8475 22.2374C15.8484 22.244 15.8494 22.2505 15.8505 22.2569C15.9255 22.6769 15.891 22.8823 15.8547 22.9771C14.4902 24.6636 13.7308 25.8013 13.5338 26.4544C13.4909 26.5984 13.5014 26.753 13.5633 26.89C13.6253 27.0269 13.7345 27.1368 13.871 27.1997C14.1105 27.309 14.5634 27.4809 15.252 27.7237C15.0572 27.8389 14.8743 28.0143 14.8284 28.2823C14.7678 28.6362 14.9893 28.9606 15.2735 29.2297C15.2041 29.2827 15.1466 29.3496 15.1047 29.4261C15.0627 29.5026 15.0372 29.587 15.0298 29.674C15.0029 30.0559 15.3216 30.3851 16.0872 30.7556C15.6731 31.2966 15.5203 31.7959 15.6332 32.241C15.748 32.6939 16.1267 33.0563 16.7586 33.318C16.7881 33.3303 16.8192 33.3387 16.8508 33.3431C17.3805 33.4161 18.4685 33.5483 20.0852 33.736C20.2104 33.7906 20.331 33.9062 20.4443 34.08C20.5207 34.1929 20.5653 34.3242 20.5735 34.4603L20.5923 34.7014C20.6901 35.9659 20.6901 35.9659 20.597 36.4881L20.5843 36.5595C20.5739 36.6178 20.5775 36.6778 20.5948 36.7344C20.612 36.7911 20.6425 36.8428 20.6836 36.8854C20.7247 36.9281 20.7754 36.9603 20.8313 36.9796C20.8873 36.9989 20.9471 37.0047 21.0058 36.9964L31.7192 35.4882C31.7694 35.4811 31.8177 35.4639 31.8611 35.4376C31.9045 35.4113 31.9421 35.3765 31.9717 35.3353C32.0012 35.2941 32.0221 35.2473 32.033 35.1977C32.044 35.1482 32.0448 35.097 32.0353 35.0471C31.6228 32.8674 31.4822 31.8298 31.6401 29.5632C31.6458 29.458 31.6782 29.3559 31.7342 29.2665C32.6809 27.7014 33.5125 26.0694 34.2223 24.3836C34.2303 24.3646 34.2367 24.345 34.2414 24.325C34.6123 22.7579 34.5643 21.1207 34.1022 19.578C33.6401 18.0353 32.7801 16.6414 31.6087 15.5362ZM33.5187 24.1214C32.8258 25.7635 32.0149 27.3532 31.0925 28.8782C30.9744 29.0694 30.9055 29.2868 30.8919 29.511C30.7372 31.7268 30.857 32.8067 31.226 34.8001L21.4033 36.1829C21.4354 35.8764 21.413 35.5876 21.34 34.6434L21.3213 34.4025C21.3037 34.1409 21.218 33.8884 21.0726 33.6702C20.8567 33.3391 20.5966 33.1186 20.2995 33.0148C20.2735 33.0057 20.2465 32.9995 20.2191 32.9963C18.6304 32.8121 17.5488 32.681 17.0023 32.6066C16.7351 32.4908 16.4232 32.3058 16.3601 32.0566C16.2883 31.7733 16.5268 31.4012 16.7398 31.1389C16.7493 31.1271 16.7581 31.1148 16.7661 31.102C17.0525 30.6459 16.8076 30.3362 16.7258 30.2522C16.6927 30.2182 16.6535 30.1909 16.6102 30.1715C16.1674 29.9735 15.954 29.8316 15.8535 29.7482C15.926 29.7166 16.0007 29.6903 16.077 29.6693C16.145 29.6497 16.2061 29.6113 16.2532 29.5584C16.3003 29.5055 16.3315 29.4404 16.3432 29.3706C16.3548 29.3007 16.3465 29.229 16.319 29.1638C16.2916 29.0985 16.2463 29.0423 16.1883 29.0017C15.6947 28.6563 15.5933 28.4678 15.5732 28.414C15.6017 28.3872 15.6918 28.3214 15.9358 28.2535C16.0109 28.2326 16.0776 28.1888 16.1266 28.1283C16.1757 28.0677 16.2047 27.9934 16.2095 27.9157C16.2218 27.7196 16.1642 27.4277 15.8197 27.1507C15.7864 27.1239 15.7488 27.103 15.7085 27.0889C15.0347 26.8535 14.5584 26.6773 14.289 26.5639C14.4554 26.1344 14.9813 25.246 16.4677 23.4118C16.4846 23.3911 16.4991 23.3686 16.5112 23.3447C16.6573 23.0554 16.6833 22.6595 16.5905 22.1348C16.0314 17.6363 18.6742 15.5781 20.3004 14.7518C23.7152 13.016 28.4567 13.6005 31.0947 16.0825C32.1664 17.0935 32.9541 18.3679 33.3794 19.7785C33.8048 21.1891 33.8528 22.6865 33.5187 24.1214ZM30.2445 20.4558L29.5513 20.3313C29.4742 20.0975 29.3798 19.8697 29.2689 19.65L29.671 19.0714C29.7668 18.9337 29.8111 18.7666 29.7962 18.5995C29.7813 18.4324 29.7081 18.2759 29.5894 18.1573L28.5598 17.1274C28.4412 17.0086 28.2846 16.9353 28.1175 16.9204C27.9503 16.9055 27.7832 16.9498 27.6455 17.0457L27.0668 17.4478C26.8471 17.3369 26.6193 17.2425 26.3855 17.1654L26.2609 16.4722C26.2313 16.307 26.1445 16.1575 26.0157 16.0499C25.887 15.9422 25.7245 15.8833 25.5567 15.8834H24.1004C23.9326 15.8833 23.7701 15.9422 23.6414 16.0499C23.5126 16.1575 23.4258 16.307 23.3962 16.4722L23.2715 17.1654C23.0377 17.2425 22.81 17.3369 22.5902 17.4478L22.0116 17.0457C21.8739 16.9499 21.7069 16.9056 21.5398 16.9205C21.3727 16.9354 21.2161 17.0086 21.0976 17.1273L20.0679 18.157C19.9492 18.2756 19.876 18.4321 19.861 18.5992C19.8461 18.7663 19.8905 18.9334 19.9863 19.0711L20.3884 19.6496C20.2775 19.8694 20.183 20.0971 20.1059 20.3309L19.4128 20.4557C19.2475 20.4852 19.098 20.572 18.9903 20.7008C18.8826 20.8296 18.8237 20.9922 18.8239 21.1601V22.6163C18.8237 22.7841 18.8827 22.9466 18.9903 23.0753C19.098 23.2041 19.2475 23.2909 19.4127 23.3205L20.1058 23.4452C20.1829 23.679 20.2773 23.9067 20.3883 24.1265L19.9862 24.7051C19.8903 24.8428 19.846 25.0098 19.8609 25.1769C19.8758 25.344 19.9491 25.5006 20.0678 25.6191L21.0973 26.6491C21.2159 26.7678 21.3724 26.841 21.5395 26.8559C21.7066 26.8708 21.8736 26.8265 22.0114 26.7306L22.5899 26.3285C22.8097 26.4395 23.0374 26.5339 23.2712 26.611L23.396 27.3041C23.4256 27.4693 23.5123 27.6188 23.6411 27.7265C23.7698 27.8341 23.9323 27.8931 24.1002 27.8929H25.5564C25.7242 27.8931 25.8867 27.8341 26.0154 27.7265C26.1442 27.6188 26.231 27.4693 26.2606 27.3041L26.3853 26.611C26.6191 26.5339 26.8468 26.4395 27.0665 26.3285L27.6451 26.7307C27.7828 26.8265 27.9499 26.8708 28.117 26.8559C28.2841 26.841 28.4406 26.7678 28.5592 26.6491L29.5889 25.6193C29.7076 25.5007 29.7808 25.3442 29.7957 25.1771C29.8106 25.01 29.7663 24.843 29.6705 24.7053L29.2684 24.1267C29.3794 23.907 29.4738 23.6792 29.5508 23.4454L30.2441 23.3207C30.4094 23.2912 30.559 23.2044 30.6667 23.0756C30.7744 22.9468 30.8334 22.7842 30.8332 22.6163V21.1601C30.8333 20.9922 30.7744 20.8298 30.6668 20.701C30.5592 20.5723 30.4097 20.4855 30.2445 20.4559V20.4558ZM30.0832 22.5874L29.1926 22.7477C29.1231 22.7602 29.0585 22.7921 29.0063 22.8397C28.9542 22.8873 28.9165 22.9487 28.8976 23.0167C28.8057 23.3485 28.6734 23.6676 28.5036 23.9671C28.4688 24.0285 28.452 24.0986 28.4552 24.1692C28.4585 24.2398 28.4816 24.308 28.5219 24.3661L29.0386 25.1094L28.0495 26.0984L27.3062 25.5818C27.2481 25.5415 27.1799 25.5183 27.1093 25.5151C27.0387 25.5119 26.9687 25.5286 26.9072 25.5635C26.6077 25.7332 26.2886 25.8654 25.9568 25.9572C25.8888 25.9761 25.8274 26.0138 25.7798 26.066C25.7322 26.1181 25.7003 26.1827 25.6878 26.2522L25.5276 27.1429H24.1293L23.969 26.2522C23.9565 26.1827 23.9247 26.1181 23.8771 26.066C23.8295 26.0138 23.7681 25.9761 23.7 25.9572C23.3683 25.8654 23.0491 25.7332 22.7496 25.5635C22.6882 25.5286 22.6181 25.5119 22.5475 25.5151C22.4769 25.5183 22.4087 25.5414 22.3506 25.5818L21.6073 26.0983L20.6182 25.1093L21.1349 24.366C21.1752 24.308 21.1983 24.2397 21.2016 24.1691C21.2048 24.0986 21.1881 24.0285 21.1532 23.967C20.9834 23.6676 20.8511 23.3484 20.7592 23.0167C20.7404 22.9486 20.7027 22.8872 20.6505 22.8396C20.5983 22.792 20.5337 22.7601 20.4642 22.7476L19.5736 22.5874V21.1891L20.4642 21.0288C20.5337 21.0163 20.5983 20.9844 20.6505 20.9368C20.7027 20.8892 20.7404 20.8279 20.7592 20.7598C20.851 20.4281 20.9833 20.1089 21.153 19.8094C21.1878 19.748 21.2046 19.6779 21.2014 19.6073C21.1982 19.5367 21.175 19.4685 21.1347 19.4104L20.6184 18.6672L21.6074 17.6781L22.3508 18.1948C22.4088 18.2351 22.477 18.2582 22.5476 18.2615C22.6182 18.2647 22.6883 18.2479 22.7497 18.2131C23.0492 18.0434 23.3684 17.9111 23.7001 17.8193C23.7682 17.8005 23.8296 17.7628 23.8772 17.7106C23.9248 17.6584 23.9567 17.5938 23.9692 17.5243L24.1294 16.6337H25.528L25.6882 17.5243C25.7007 17.5938 25.7326 17.6584 25.7802 17.7106C25.8278 17.7628 25.8892 17.8005 25.9572 17.8193C26.289 17.9111 26.6081 18.0433 26.9075 18.2131C26.969 18.2479 27.0391 18.2647 27.1097 18.2615C27.1803 18.2582 27.2485 18.2351 27.3065 18.1948L28.0498 17.6781L29.0388 18.6672L28.5222 19.4105C28.4818 19.4686 28.4587 19.5368 28.4555 19.6074C28.4522 19.678 28.469 19.7481 28.5039 19.8095C28.6736 20.109 28.806 20.4282 28.8979 20.7599C28.9167 20.828 28.9544 20.8893 29.0066 20.9369C29.0588 20.9845 29.1233 21.0164 29.1928 21.0289L30.0835 21.1892L30.0832 22.5874ZM24.8285 18.9746C24.2523 18.9746 23.689 19.1455 23.2098 19.4656C22.7307 19.7858 22.3572 20.2408 22.1367 20.7732C21.9162 21.3056 21.8585 21.8914 21.9709 22.4566C22.0833 23.0218 22.3608 23.541 22.7683 23.9484C23.1757 24.3559 23.6949 24.6334 24.2601 24.7458C24.8253 24.8583 25.4111 24.8006 25.9435 24.58C26.4759 24.3595 26.9309 23.986 27.2511 23.5069C27.5712 23.0278 27.7421 22.4644 27.7421 21.8882C27.7412 21.1157 27.434 20.3751 26.8878 19.8289C26.3416 19.2827 25.601 18.9755 24.8285 18.9746ZM24.8285 24.0518C24.4006 24.0518 23.9823 23.9249 23.6265 23.6872C23.2707 23.4494 22.9934 23.1115 22.8296 22.7162C22.6658 22.3208 22.623 21.8858 22.7065 21.4661C22.7899 21.0464 22.996 20.6609 23.2986 20.3583C23.6012 20.0557 23.9867 19.8496 24.4064 19.7661C24.8261 19.6826 25.2611 19.7255 25.6565 19.8892C26.0518 20.053 26.3897 20.3303 26.6275 20.6861C26.8652 21.0419 26.9921 21.4602 26.9921 21.8882C26.9915 22.4618 26.7633 23.0117 26.3577 23.4173C25.9521 23.823 25.4022 24.0511 24.8285 24.0518Z" fill="#2586C8"/>
</g>
<defs>
<clipPath id="clip0_349_1457">
<rect width="24" height="24" fill="white" transform="translate(12 13)"/>
</clipPath>
</defs>
</svg>
