<svg width="49" height="48" viewBox="0 0 49 48" fill="none" xmlns="http://www.w3.org/2000/svg">
<rect x="0.167969" width="48" height="48" rx="8" fill="#EBF7FF"/>
<path d="M13.4299 28.5697L16.758 21.8133C16.8878 21.5505 17.1166 21.3499 17.3941 21.2555C17.6717 21.1611 17.9753 21.1807 18.2385 21.31L19.6413 22.0009C19.8715 22.1147 20.055 22.305 20.1604 22.5391C20.2658 22.7733 20.2865 23.0368 20.2191 23.2846C21.1373 22.88 22.1832 23.006 23.4093 23.374C24.9709 23.1501 26.5618 22.9374 27.8828 23.5366L27.8557 23.4814C27.7264 23.2183 27.7069 22.9147 27.8012 22.6371C27.8956 22.3596 28.0961 22.1308 28.359 22.0009L29.7618 21.3099C30.025 21.1807 30.3286 21.1611 30.6062 21.2555C30.8837 21.3499 31.1125 21.5505 31.2424 21.8133L34.5705 28.5697C34.6995 28.8328 34.719 29.1364 34.6246 29.4139C34.5303 29.6914 34.3298 29.9202 34.0671 30.0501L32.6642 30.7412C32.5131 30.8159 32.3467 30.8549 32.1781 30.855C32.0563 30.8549 31.9353 30.8347 31.82 30.7953C31.5804 30.7147 31.3759 30.5539 31.2412 30.3399C31.1437 30.5869 31.0104 30.8182 30.8454 31.0263C31.1488 31.4499 31.1659 31.4751 31.1821 31.5027C31.5751 32.1688 31.4675 32.7052 31.3072 33.0386C31.1327 33.4107 30.7047 33.972 29.7253 33.9133C29.6232 34.2699 29.45 34.5435 29.208 34.7295C28.9052 34.9621 28.5142 35.0464 28.0455 34.9802C27.7303 34.9358 27.437 34.7994 27.167 34.6465C27.1117 34.8672 26.9966 35.0684 26.8342 35.2277C26.5707 35.4839 26.1976 35.6127 25.7216 35.6127C25.561 35.6119 25.4006 35.5991 25.2419 35.5744C24.782 35.5107 24.3556 35.2978 24.0283 34.9684L23.1433 35.449C22.8928 35.59 22.6111 35.6661 22.3237 35.6704C22.0836 35.6719 21.8475 35.6089 21.6399 35.4881C21.3408 35.3067 21.1134 35.0277 20.9961 34.6981C20.4214 34.9959 19.7164 35.1428 19.1289 34.8949C18.8644 34.7832 18.4432 34.5054 18.268 33.8402C17.3528 33.9069 16.7932 33.4264 16.6313 32.8554C16.4749 32.3037 16.6695 31.6089 17.2716 31.1194C17.0761 30.9554 16.9155 30.7538 16.7993 30.5267C16.7746 30.479 16.7518 30.4304 16.7308 30.381C16.5966 30.5747 16.4035 30.72 16.1803 30.7955C16.065 30.8349 15.944 30.8551 15.8221 30.8552C15.6535 30.8551 15.4872 30.8161 15.3361 30.7413L13.9332 30.0504C13.6705 29.9204 13.47 29.6915 13.3756 29.414C13.2813 29.1365 13.3008 28.8328 13.4299 28.5697ZM19.1403 25.5225C19.1391 25.5246 19.1376 25.5264 19.1364 25.5284L17.5395 28.7703C17.5386 28.7723 17.5379 28.7743 17.5368 28.7763C17.4349 28.9833 17.3829 29.2113 17.3851 29.442L23.1223 25.917C23.1716 25.8867 23.2267 25.8669 23.284 25.8588C23.3413 25.8507 23.3997 25.8544 23.4555 25.8698C24.6428 26.1979 25.5349 26.3237 26.1069 26.2428C26.1265 26.2401 26.1461 26.2388 26.1659 26.2388H26.1675C26.4119 26.2388 26.6336 26.0262 26.6688 25.8356C26.718 25.5702 26.3839 25.4007 26.1805 25.3232L23.2404 24.2039C21.0638 23.5376 20.1046 23.8465 19.1403 25.5225ZM31.9406 29.8651C31.9717 29.927 32.0259 29.9742 32.0915 29.9965C32.1572 30.0188 32.2289 30.0144 32.2913 29.9843L33.6943 29.2932C33.7562 29.2621 33.8034 29.2079 33.8257 29.1423C33.848 29.0766 33.8436 29.0049 33.8135 28.9425L30.4853 22.1861C30.463 22.1422 30.429 22.1054 30.387 22.0797C30.345 22.0541 30.2967 22.0406 30.2475 22.0408C30.2084 22.0407 30.1697 22.0496 30.1346 22.0668L28.7318 22.7578C28.6702 22.7892 28.6232 22.8434 28.6009 22.9089C28.5787 22.9744 28.5829 23.0461 28.6126 23.1085L31.9406 29.8651ZM30.5437 32.6791C30.5445 32.6775 30.5453 32.6758 30.546 32.6744C30.6126 32.5365 30.6758 32.3108 30.4603 31.9403C30.4324 31.8996 30.3186 31.7403 30.222 31.6055L29.1544 32.1852C29.261 32.3695 29.4195 32.6455 29.6567 33.0602C30.3252 33.1459 30.4765 32.8234 30.5439 32.6791H30.5437ZM28.1631 34.1448C28.3989 34.178 28.5774 34.1495 28.6937 34.0605C28.8393 33.9486 28.913 33.7269 28.9503 33.5245C28.7718 33.2119 28.5926 32.8997 28.4127 32.5878L27.0024 33.3536C27.0383 33.4336 27.0777 33.527 27.1219 33.636C27.1771 33.6688 27.2322 33.7025 27.286 33.7356C27.5842 33.9179 27.892 34.1065 28.1633 34.1448H28.1631ZM25.3668 34.7402C25.7902 34.8036 26.1023 34.7621 26.2455 34.623C26.3805 34.4917 26.3903 34.2369 26.3703 34.0286C26.3343 33.9377 26.297 33.8473 26.2583 33.7576L24.8249 34.5357C24.9881 34.6435 25.1733 34.7134 25.367 34.7402L25.3668 34.7402ZM17.4432 32.625C17.5353 32.95 17.9247 33.0757 18.4646 32.9599L24.2558 29.7004C24.3041 29.6733 24.3573 29.6559 24.4123 29.6492C24.4673 29.6426 24.5231 29.6469 24.5764 29.6618C24.6298 29.6767 24.6797 29.702 24.7232 29.7362C24.7668 29.7704 24.8032 29.8129 24.8304 29.8611C24.8576 29.9094 24.875 29.9626 24.8816 30.0176C24.8883 30.0726 24.884 30.1284 24.8691 30.1817C24.8541 30.2351 24.8288 30.285 24.7946 30.3285C24.7604 30.3721 24.718 30.4085 24.6697 30.4357L19.074 33.5852C19.1359 33.8571 19.264 34.0359 19.4572 34.1175C19.8451 34.2815 20.5312 34.0878 21.019 33.6768L21.0199 33.6762C21.0343 33.6642 21.0495 33.6533 21.0653 33.6434L21.0705 33.6401C21.0759 33.6368 21.081 33.6331 21.0867 33.63L25.1918 31.3369C25.2402 31.3094 25.2935 31.2917 25.3488 31.285C25.404 31.2782 25.4601 31.2824 25.5137 31.2974C25.5673 31.3123 25.6174 31.3378 25.6611 31.3722C25.7049 31.4066 25.7414 31.4494 25.7685 31.498C25.7956 31.5465 25.8129 31.6 25.8193 31.6553C25.8257 31.7106 25.821 31.7666 25.8057 31.8201C25.7903 31.8736 25.7645 31.9235 25.7298 31.967C25.6951 32.0105 25.6521 32.0467 25.6033 32.0735L21.7376 34.2328C21.7858 34.474 21.9016 34.6635 22.0657 34.7597C22.296 34.8942 22.5599 34.8055 22.7407 34.7074L29.8652 30.839C30.5342 30.2457 30.7205 29.5804 30.4512 28.7506L28.842 25.4834L28.8402 25.481C27.9526 24.1 26.6512 23.897 25.1179 24.0162L26.4808 24.5351C27.5964 24.9598 27.5418 25.7558 27.4986 25.9895C27.3869 26.5936 26.8189 27.0677 26.197 27.0824C25.5339 27.1691 24.6201 27.0542 23.4086 26.7316L17.6352 30.2787C17.7602 30.4591 17.9454 30.5892 18.1575 30.6456L23.508 28.0194C23.6084 27.9704 23.7241 27.9633 23.8297 27.9995C23.9354 28.0357 24.0224 28.1124 24.0716 28.2127C24.1208 28.3129 24.1282 28.4286 24.0923 28.5344C24.0564 28.6401 23.9799 28.7273 23.8798 28.7768L18.4016 31.4658C18.3993 31.467 18.3969 31.4677 18.3945 31.4688C18.3846 31.4735 18.3745 31.4777 18.3641 31.4816C18.36 31.4831 18.3561 31.4848 18.352 31.4863C18.3503 31.4868 18.3487 31.4876 18.3469 31.4882C17.6448 31.7185 17.336 32.2471 17.4432 32.625ZM14.1747 29.1422C14.1855 29.1747 14.2027 29.2048 14.2252 29.2308C14.2477 29.2567 14.2752 29.2778 14.3059 29.2931L15.7088 29.9841C15.7712 30.0142 15.843 30.0186 15.9086 29.9963C15.9742 29.974 16.0285 29.9268 16.0596 29.8649L19.3877 23.1084C19.4174 23.0459 19.4216 22.9743 19.3993 22.9088C19.3771 22.8433 19.3301 22.789 19.2684 22.7576L17.8655 22.0667C17.8031 22.0369 17.7314 22.0327 17.6659 22.055C17.6004 22.0772 17.5461 22.1242 17.5148 22.1859L14.1866 28.9423C14.1715 28.9731 14.1627 29.0067 14.1606 29.041C14.1586 29.0753 14.1633 29.1097 14.1747 29.1422ZM24.0002 21.2215C22.9717 21.2208 21.9753 20.8635 21.1807 20.2105C20.3861 19.5575 19.8425 18.6492 19.6424 17.6404C19.4424 16.6316 19.5984 15.5846 20.0838 14.6778C20.5691 13.7711 21.3539 13.0607 22.3043 12.6676C23.2547 12.2746 24.312 12.2232 25.296 12.5223C26.2801 12.8214 27.1299 13.4525 27.7009 14.3079C28.2718 15.1634 28.5285 16.1903 28.4272 17.2138C28.3259 18.2373 27.8728 19.194 27.1452 19.9209C26.7325 20.3341 26.2422 20.6617 25.7025 20.8849C25.1627 21.1081 24.5842 21.2225 24.0002 21.2215ZM26.5486 14.2275C25.959 13.6379 25.1833 13.271 24.3535 13.1893C23.5237 13.1076 22.6913 13.3161 21.998 13.7793C21.3048 14.2425 20.7936 14.9318 20.5516 15.7297C20.3095 16.5276 20.3517 17.3847 20.6707 18.155C20.9898 18.9253 21.5661 19.5611 22.3014 19.9542C23.0368 20.3472 23.8856 20.4731 24.7034 20.3105C25.5211 20.1478 26.2572 19.7066 26.7861 19.0621C27.3151 18.4176 27.6042 17.6096 27.6042 16.7758C27.6037 15.8201 27.2241 14.9036 26.5486 14.2275ZM25.6099 17.7381C25.6233 17.6837 25.6258 17.6273 25.6171 17.572C25.6085 17.5167 25.589 17.4636 25.5597 17.416C25.5303 17.3683 25.4918 17.3269 25.4464 17.2943C25.4009 17.2616 25.3494 17.2384 25.2948 17.2258C25.2403 17.2133 25.1838 17.2117 25.1286 17.2212C25.0735 17.2307 25.0208 17.2511 24.9736 17.2812C24.9264 17.3113 24.8856 17.3504 24.8537 17.3964C24.8218 17.4424 24.7994 17.4943 24.7877 17.549C24.6651 18.0825 24.065 18.151 23.7298 18.1073C23.4457 18.0704 23.2927 17.9249 23.2442 17.8012C23.2011 17.6911 23.2265 17.5751 23.3177 17.4655C23.4788 17.2721 23.6394 17.2405 23.9589 17.1926C24.1644 17.1679 24.3668 17.1216 24.5627 17.0545C24.5671 17.0529 24.5715 17.0512 24.5758 17.0494C25.1282 16.8257 25.4533 16.3884 25.4458 15.8798C25.4381 15.3629 25.0902 14.9018 24.5595 14.705C24.5055 14.685 24.4516 14.6679 24.3977 14.6535V14.3682C24.3977 14.2563 24.3533 14.149 24.2742 14.0699C24.1951 13.9908 24.0877 13.9464 23.9759 13.9464C23.864 13.9464 23.7567 13.9908 23.6776 14.0699C23.5984 14.149 23.554 14.2563 23.554 14.3682V14.6437C23.056 14.773 22.6371 15.1458 22.4261 15.7031C22.3864 15.8077 22.39 15.9238 22.4359 16.0258C22.4819 16.1279 22.5665 16.2074 22.6711 16.2471C22.7758 16.2867 22.8919 16.2832 22.9939 16.2372C23.0959 16.1912 23.1755 16.1066 23.2151 16.002C23.3957 15.5251 23.8084 15.327 24.2662 15.4965C24.4954 15.5815 24.6001 15.7568 24.6022 15.8928C24.6052 16.0936 24.3956 16.2115 24.2655 16.2652C24.125 16.3104 23.9803 16.3417 23.8336 16.3586C23.4814 16.4114 23.043 16.4772 22.6692 16.926C22.3821 17.2709 22.3033 17.7132 22.4586 18.1094C22.6281 18.542 23.0351 18.8462 23.554 18.9338V19.1838C23.554 19.2957 23.5984 19.403 23.6776 19.4821C23.7567 19.5612 23.864 19.6057 23.9759 19.6057C24.0877 19.6057 24.1951 19.5612 24.2742 19.4821C24.3533 19.403 24.3977 19.2957 24.3977 19.1838V18.91C25.0098 18.7652 25.4715 18.34 25.6099 17.7381Z" fill="#2586C8"/>
</svg>
